<?xml version="1.0" standalone="no"?>
<!DOCTYPE svg PUBLIC "-//W3C//DTD SVG 20010904//EN"
 "http://www.w3.org/TR/2001/REC-SVG-20010904/DTD/svg10.dtd">
<svg version="1.0" xmlns="http://www.w3.org/2000/svg"
 width="1456.000000pt" height="1456.000000pt" viewBox="0 0 1456.000000 1456.000000"
 preserveAspectRatio="xMidYMid meet">
<metadata>
Created by potrace 1.14, written by Peter Selinger 2001-2017
</metadata>
<g transform="translate(0.000000,1456.000000) scale(0.100000,-0.100000)"
fill="#000000" stroke="none">
<path d="M2675 10885 l0 -1015 35 -1 c19 -1 51 -2 70 -4 19 -1 100 -6 180 -9
80 -4 179 -9 220 -11 41 -2 131 -6 200 -10 188 -9 282 -14 420 -21 69 -3 155
-7 192 -8 37 -1 70 -5 73 -8 4 -4 17 -3 30 2 13 5 25 6 29 3 3 -3 43 -7 88 -9
121 -4 481 -22 593 -28 51 -3 73 -13 80 -37 8 -26 19 -24 77 11 41 26 52 29
65 18 9 -7 44 -12 84 -13 51 0 72 -4 79 -15 8 -12 28 4 102 81 87 90 159 148
190 153 7 1 18 5 25 9 6 4 14 3 18 -3 4 -6 10 -8 15 -5 5 3 19 -4 30 -15 24
-24 46 -26 190 -17 52 4 138 9 190 12 52 3 122 7 155 10 33 2 110 7 170 10 61
3 133 8 160 10 62 5 284 17 347 19 27 0 48 3 48 6 0 3 57 6 127 8 107 2 130 5
148 21 18 17 55 32 116 48 32 8 172 7 230 -2 51 -8 100 10 131 49 10 12 21 26
26 31 4 6 9 14 9 19 1 5 6 12 11 15 14 9 49 81 73 152 12 35 25 68 29 72 4 4
25 1 46 -7 21 -8 54 -17 71 -20 18 -2 44 -13 58 -24 20 -16 32 -19 55 -12 72
21 142 -19 191 -108 13 -24 43 -56 67 -72 50 -33 39 -35 196 39 59 28 112 51
117 51 5 0 9 4 9 10 0 5 3 9 8 8 4 -1 52 19 106 45 59 28 111 47 125 45 44 -5
65 -43 70 -125 3 -73 13 -87 39 -61 8 8 38 12 76 12 52 -1 75 -7 136 -39 89
-45 127 -50 211 -30 79 18 79 18 79 2 0 -17 35 -50 58 -55 9 -2 60 -4 112 -5
l95 -2 19 -57 c17 -50 22 -56 38 -47 10 5 18 7 18 3 0 -16 40 40 41 58 1 10 3
23 4 28 1 6 3 26 4 45 1 31 3 34 19 24 9 -7 39 -38 65 -71 29 -36 55 -58 65
-57 31 5 96 -24 134 -59 56 -52 83 -66 101 -52 1 1 11 3 21 5 11 2 30 6 43 10
21 5 23 2 23 -40 0 -25 -7 -57 -16 -70 -16 -25 -16 -25 22 -41 22 -9 44 -17
49 -18 6 -1 19 -5 30 -9 64 -20 191 -25 310 -13 66 6 110 13 110 16 0 1 17 3
38 5 49 5 57 11 53 38 -2 12 3 34 10 49 12 22 26 29 86 42 40 9 87 18 103 19
17 2 35 6 40 9 12 6 105 3 138 -6 28 -7 48 -45 40 -76 -3 -13 -27 -32 -62 -50
-65 -34 -92 -55 -114 -90 l-16 -25 427 0 427 0 1 1133 1 1132 -4626 0 -4626 0
0 -1015z"/>
<path d="M22 10417 c-35 -16 -27 -50 22 -100 24 -25 46 -57 50 -71 8 -33 -9
-66 -34 -66 -31 0 -31 -63 -1 -133 12 -27 21 -55 21 -63 0 -12 5 -12 36 1 65
27 157 3 151 -40 -4 -28 -19 -50 -42 -62 -16 -9 -19 -20 -16 -60 3 -44 17 -80
29 -69 16 16 104 -51 241 -184 43 -42 83 -70 99 -70 8 0 13 3 9 6 -3 3 -1 19
5 35 15 43 51 49 110 16 45 -25 51 -26 94 -15 45 12 45 12 75 -22 21 -23 29
-42 26 -57 -3 -18 1 -25 18 -29 12 -3 28 -16 35 -29 7 -13 20 -23 29 -23 24 1
103 -14 131 -25 8 -3 38 -12 65 -21 28 -9 97 -33 155 -52 58 -20 110 -37 115
-38 37 -9 63 -21 83 -40 32 -29 141 -43 317 -40 106 1 148 -2 172 -13 18 -8
39 -13 47 -10 24 9 72 -14 92 -45 16 -23 24 -27 49 -22 44 8 133 8 190 1 66
-9 74 -11 119 -30 21 -9 66 -19 100 -21 33 -2 63 -5 66 -6 3 -1 21 -1 40 0 20
1 56 -6 82 -14 46 -16 100 -13 126 7 6 5 12 6 12 3 0 -4 9 -2 19 4 53 28 107
23 236 -23 92 -33 131 -40 245 -41 99 -2 179 13 285 53 33 13 68 25 78 27 10
2 27 6 37 9 10 3 28 8 39 10 12 3 31 7 43 10 21 4 71 13 128 21 14 1 72 3 130
4 94 1 125 -1 208 -15 14 -2 22 1 22 11 0 8 -4 14 -9 14 -5 0 -7 9 -4 20 6 24
-7 25 -50 4 -45 -24 -114 -22 -139 3 -47 48 28 153 109 153 37 0 88 -27 103
-55 11 -21 15 -22 27 -9 8 8 18 12 23 9 5 -3 10 -1 12 4 5 15 59 19 93 8 48
-16 77 -48 73 -79 -5 -33 1 -34 52 -8 22 11 43 20 48 20 5 0 27 -18 48 -40 22
-23 48 -40 61 -40 12 0 58 17 101 38 107 53 119 55 169 31 32 -15 43 -27 43
-43 0 -13 2 -25 5 -28 5 -4 113 13 160 26 8 2 82 24 105 31 3 1 18 7 33 13 16
7 32 12 37 12 5 0 11 4 14 8 3 5 -18 10 -47 11 -109 4 -135 20 -150 87 -4 18
6 25 67 49 101 40 222 40 351 0 76 -24 150 -18 214 17 42 23 64 29 102 27 45
-3 52 0 111 52 34 30 70 61 79 70 19 19 96 56 124 60 11 2 35 -3 52 -11 31
-14 33 -18 29 -57 -2 -24 -2 -43 0 -43 2 0 19 15 38 34 19 19 37 32 40 29 3
-4 6 -2 6 4 0 12 120 77 165 88 44 12 45 12 48 15 1 1 13 3 27 5 14 2 41 6 60
9 47 7 130 9 157 2 32 -7 83 -35 126 -69 37 -28 37 -30 20 -49 -13 -15 -14
-19 -3 -16 8 2 28 20 45 40 27 36 30 37 52 23 33 -22 70 -18 127 14 37 21 62
28 90 26 23 -2 49 3 62 12 13 8 28 12 33 9 5 -4 12 -2 15 3 3 5 14 7 25 4 11
-3 24 3 32 14 19 27 66 56 92 57 12 1 28 5 35 9 6 5 12 4 12 -2 0 -11 19 -7
57 12 17 8 30 7 50 -3 16 -7 39 -13 53 -12 77 4 345 15 403 15 37 1 67 4 67 7
0 13 60 1 107 -23 29 -15 61 -27 72 -27 16 0 18 5 14 38 -7 52 28 84 96 87 27
2 55 6 60 10 6 3 11 2 11 -2 0 -5 12 -9 28 -9 62 -1 68 -4 80 -36 13 -37 11
-60 -5 -80 -10 -11 -7 -14 15 -16 81 -7 138 -43 153 -97 l10 -40 176 1 c97 1
184 -2 192 -7 9 -4 41 -19 71 -33 30 -14 87 -44 125 -66 91 -52 240 -83 272
-57 7 5 13 7 13 4 0 -3 20 0 45 7 25 8 45 12 45 9 0 -3 6 -1 12 4 7 5 19 8 26
7 6 -1 21 -2 31 -3 11 0 33 -13 50 -27 29 -24 37 -25 183 -30 84 -2 200 -6
258 -9 58 -3 121 -6 140 -7 39 -1 93 7 109 16 25 16 153 24 201 13 36 -9 70
-28 106 -59 l37 -33 246 1 c233 1 313 5 406 21 22 4 45 7 50 8 25 2 82 18 100
28 29 16 47 14 69 -5 19 -17 17 -17 206 -3 41 4 107 8 145 11 68 4 71 5 110
49 44 49 126 96 208 120 85 25 130 31 267 41 41 2 81 7 89 10 10 3 9 -1 -4
-16 -10 -11 -22 -20 -27 -20 -8 0 -84 -55 -98 -71 -3 -3 -13 -8 -22 -12 -26
-9 -22 -26 9 -38 24 -9 30 -6 57 23 17 18 30 34 29 35 -2 2 -3 4 -2 6 0 1 2
10 4 20 5 28 7 28 60 2 41 -22 51 -23 64 -11 36 31 148 55 286 62 86 4 119 8
170 23 22 6 61 11 88 11 42 0 46 2 36 18 -6 9 -22 18 -36 19 -31 1 -40 11 -47
45 -4 23 2 33 32 58 71 57 87 71 72 64 -32 -18 -139 -51 -144 -46 -4 3 -6 -1
-6 -8 0 -7 -3 -11 -6 -8 -3 4 -21 0 -40 -8 -19 -8 -36 -14 -39 -14 -10 1 -61
-12 -85 -21 -60 -22 -169 -33 -204 -20 -13 6 -27 19 -31 31 -5 16 -12 19 -28
14 -12 -4 -23 -10 -25 -15 -7 -19 -77 -62 -106 -66 -25 -3 -38 2 -58 22 -25
25 -28 25 -123 19 -53 -3 -107 -3 -120 0 -26 7 -38 41 -24 68 5 10 6 18 1 18
-12 0 -180 -70 -266 -110 -85 -40 -162 -52 -207 -33 -30 12 -40 11 -117 -17
l-84 -31 -538 3 -538 3 24 54 c25 56 30 76 16 67 -11 -6 -87 -23 -142 -31 -14
-1 -25 -4 -25 -5 0 -3 -41 -10 -86 -13 -25 -2 -50 -6 -55 -8 -14 -7 -223 -3
-269 5 -90 16 -188 59 -243 107 -28 25 -36 27 -60 18 -61 -24 -236 -17 -230 9
1 4 -2 19 -6 34 -4 15 -5 36 -1 47 6 21 62 51 98 54 25 2 21 17 -5 18 -38 1
-72 9 -82 19 -5 5 -16 -1 -28 -15 -20 -25 -64 -38 -133 -39 -47 -1 -56 6 -77
59 -10 24 -23 41 -34 42 -11 2 -41 5 -69 7 -59 5 -124 24 -146 43 -12 10 -28
12 -55 7 -76 -15 -135 -4 -227 43 -77 39 -124 44 -164 18 -12 -8 -40 -15 -62
-15 -32 0 -43 5 -60 28 -22 31 -37 89 -35 135 1 15 0 27 -2 27 -3 0 -94 -42
-279 -130 -44 -21 -106 -50 -138 -64 l-58 -26 -47 20 c-25 12 -55 28 -66 38
-11 9 -16 12 -13 6 17 -29 -6 -74 -59 -115 -30 -23 -62 -55 -72 -71 -17 -30
-59 -48 -71 -31 -3 6 -41 27 -85 47 -105 48 -152 103 -141 163 6 37 59 97 115
130 18 10 28 23 25 31 -3 8 -5 17 -5 22 0 10 -35 19 -48 11 -5 -3 -20 -28 -32
-56 -59 -130 -154 -230 -240 -252 -23 -6 -81 -5 -120 2 -111 20 -200 4 -270
-46 -19 -14 -51 -20 -135 -24 -60 -3 -146 -7 -190 -10 -44 -3 -118 -8 -165
-10 -47 -2 -85 -4 -85 -5 0 -1 -29 -3 -65 -5 -97 -5 -266 -15 -345 -20 -535
-36 -586 -36 -614 -11 -37 33 -61 17 -217 -146 -99 -103 -165 -128 -206 -80
-22 26 -25 27 -84 17 -33 -5 -81 -21 -106 -34 -43 -23 -47 -24 -70 -9 -14 9
-31 29 -39 45 -13 25 -19 28 -69 30 -214 7 -312 13 -322 19 -7 5 -8 3 -3 -6 6
-9 4 -11 -6 -5 -7 5 -47 10 -89 11 -41 2 -124 5 -185 9 -187 10 -317 16 -397
18 -43 1 -78 4 -78 7 0 3 -42 5 -93 6 -88 1 -304 9 -472 19 -44 3 -134 7 -200
10 -66 4 -131 7 -145 8 -14 1 -30 -1 -37 -6 -6 -4 -14 -4 -17 2 -8 12 -42 6
-126 -21 -72 -23 -91 -35 -74 -46 25 -16 36 -53 24 -82 -11 -27 -60 -59 -99
-65 -28 -4 -80 15 -137 49 l-55 34 25 20 c30 23 33 32 11 32 -9 0 -25 9 -37
20 -28 26 -33 25 -36 -7 -1 -15 -9 -37 -17 -50 -9 -13 -12 -23 -8 -23 5 -1 -3
-7 -17 -15 -40 -23 -91 -18 -141 13 -24 15 -67 40 -96 54 -67 33 -99 58 -107
86 -9 28 -20 28 -60 -3 -48 -36 -89 -42 -115 -16 -25 25 -28 77 -5 109 15 22
15 24 -1 36 -11 8 -35 11 -61 8 -24 -2 -44 0 -44 5 0 5 -13 8 -29 5 -34 -5
-95 13 -116 34 -17 17 -36 19 -80 9 -47 -11 -68 -12 -100 -2 -16 4 -34 9 -40
11 -5 1 -26 12 -45 24 -19 12 -38 22 -42 22 -5 0 -8 6 -8 13 0 29 -35 42 -110
43 -64 0 -81 4 -109 25 -18 13 -35 36 -38 51 -5 28 -14 33 -68 43 -16 2 -39 7
-50 9 -11 2 -38 7 -60 10 -34 6 -41 11 -43 32 -1 14 -6 33 -12 43 -11 22 -54
33 -69 18 -6 -6 -11 -8 -11 -4 0 3 -20 -2 -44 -13 -24 -10 -47 -16 -50 -13 -3
4 -6 1 -6 -6 0 -7 -4 -9 -10 -6 -6 4 0 26 15 55 30 59 27 64 -55 69 -21 1 -62
40 -55 51 7 12 -247 8 -273 -3z m3798 -1037 c24 -13 41 -44 47 -86 3 -24 -1
-37 -19 -54 -21 -20 -30 -21 -102 -16 -86 6 -96 12 -96 64 0 33 31 87 44 75 3
-3 6 -1 6 5 0 20 88 29 120 12z"/>
<path d="M8107 10119 c7 -7 15 -10 18 -7 3 3 -2 9 -12 12 -14 6 -15 5 -6 -5z"/>
<path d="M14033 9851 c-10 -9 -36 -43 -58 -76 -41 -61 -148 -174 -200 -211
l-30 -21 71 2 c82 2 126 17 144 49 6 13 30 31 53 41 23 10 54 26 68 36 14 10
29 16 33 12 3 -3 6 -1 6 5 0 7 8 12 18 12 10 0 22 4 28 10 5 5 27 12 49 16 61
9 75 22 25 22 -50 1 -78 23 -86 68 -3 16 -10 33 -15 39 -16 16 -85 13 -106 -4z"/>
<path d="M14475 9850 c-16 -11 -31 -17 -34 -15 -9 10 -50 -46 -46 -64 4 -23
-32 -35 -77 -26 -16 3 -28 1 -28 -5 0 -5 10 -10 23 -10 12 -1 33 -7 47 -15 30
-17 67 -19 72 -4 2 5 10 11 19 12 8 2 36 20 61 41 38 32 45 43 37 57 -5 10 -8
24 -7 31 5 20 -34 19 -67 -2z"/>
<path d="M11015 9760 c-3 -5 -1 -10 4 -10 6 0 11 5 11 10 0 6 -2 10 -4 10 -3
0 -8 -4 -11 -10z"/>
<path d="M8337 9613 c-2 -1 -68 -4 -148 -7 -79 -2 -144 -5 -144 -6 0 -1 -67
-3 -150 -4 -143 -3 -195 -9 -195 -24 0 -4 -16 -25 -35 -47 -34 -40 -35 -40
-63 -24 -26 14 -30 14 -53 0 -13 -9 -25 -19 -27 -23 -2 -3 -18 0 -36 7 -28 12
-37 12 -62 -2 -75 -40 -89 -45 -133 -48 -26 -1 -60 -10 -75 -20 -42 -27 -124
-43 -181 -34 -60 9 -108 19 -113 24 -2 1 17 25 41 51 39 42 43 50 30 60 -15
10 -153 11 -193 1 -68 -17 -109 -32 -131 -48 -15 -10 -32 -19 -38 -19 -6 0
-41 -29 -77 -65 -65 -63 -86 -75 -99 -55 -3 6 -14 10 -22 10 -29 0 -82 43 -85
70 -3 23 -5 22 -60 -29 -107 -100 -135 -116 -200 -116 -32 1 -58 -2 -58 -6 0
-4 -26 -17 -57 -29 -74 -29 -191 -30 -257 -4 -15 6 -17 4 -9 -12 12 -23 10
-71 -3 -84 -5 -4 -25 -13 -44 -18 -19 -6 -82 -27 -140 -47 -121 -42 -241 -72
-320 -81 -105 -12 -103 -12 -112 26 -5 19 -11 40 -13 47 -3 8 -24 1 -66 -23
-113 -63 -198 -68 -248 -13 l-28 30 -101 -49 c-116 -57 -133 -63 -154 -51 -9
5 -33 11 -54 15 -22 3 -55 9 -76 13 -20 5 -89 7 -155 5 -110 -2 -148 -6 -206
-19 -122 -27 -167 -38 -260 -65 -60 -17 -123 -32 -140 -33 -18 -2 -36 -5 -42
-8 -17 -10 -257 -2 -305 10 -63 16 -60 15 -113 39 -70 31 -94 32 -165 5 -78
-29 -119 -33 -153 -17 -15 7 -51 15 -80 16 l-54 3 0 -742 0 -743 35 -1 c19 0
60 -2 90 -4 260 -13 348 -17 435 -21 55 -2 100 -4 100 -5 0 0 36 -2 80 -4 44
-2 132 -6 195 -9 135 -8 328 -17 420 -20 36 -1 71 -5 78 -10 7 -4 12 -2 12 4
0 6 4 9 10 5 5 -3 60 -8 122 -10 62 -3 149 -7 193 -9 239 -13 362 -19 382 -18
11 1 34 -12 51 -29 l30 -30 50 31 c47 29 53 30 74 17 17 -11 37 -13 76 -8 43
6 55 4 72 -11 20 -18 22 -17 123 86 142 143 209 174 271 125 28 -22 70 -25
191 -14 22 2 94 7 160 10 66 4 145 8 175 10 54 4 136 9 315 20 87 5 164 10
345 21 138 9 192 11 255 14 42 2 71 9 95 25 44 27 106 48 120 40 5 -3 10 -2
10 3 0 10 157 9 208 -2 91 -20 177 67 247 249 15 39 27 76 28 83 1 16 17 15
61 -3 19 -8 39 -15 43 -14 5 1 11 0 16 -1 4 -1 10 -3 15 -4 29 -7 52 -19 52
-28 0 -6 21 -8 56 -4 30 3 67 1 82 -5 33 -13 82 -58 82 -76 0 -7 5 -13 10 -13
6 0 10 -6 10 -12 0 -18 55 -75 88 -92 25 -13 32 -12 77 9 133 63 171 79 178
77 4 -1 7 2 7 8 0 5 5 10 10 10 6 0 59 23 118 52 59 29 110 52 114 52 3 1 9 4
12 7 14 14 53 -5 74 -35 17 -25 22 -46 22 -99 0 -62 9 -82 25 -57 4 6 11 8 16
5 5 -4 9 -2 9 3 0 14 139 7 153 -7 6 -6 19 -11 29 -11 10 0 18 -4 18 -9 0 -5
24 -18 53 -30 55 -21 110 -22 177 -2 49 15 55 14 68 -14 17 -37 55 -48 164
-47 l97 1 7 -35 c3 -19 10 -34 15 -34 5 0 8 -3 8 -7 -4 -22 3 -33 19 -33 23 0
62 35 63 58 3 41 9 88 14 101 4 11 9 9 23 -6 9 -11 36 -43 60 -70 34 -40 49
-50 74 -51 40 -1 73 -18 121 -62 21 -19 46 -39 54 -44 15 -8 65 -4 111 10 21
6 22 4 22 -49 0 -41 -4 -58 -16 -65 -14 -8 -11 -13 17 -33 19 -13 36 -23 39
-23 3 1 10 0 15 -1 50 -14 99 -22 134 -21 22 0 41 -2 41 -6 0 -4 6 -6 13 -3 6
2 57 6 112 9 55 3 111 8 125 11 14 4 43 8 65 11 52 7 55 9 53 51 -2 45 23 68
89 79 26 4 50 8 53 9 70 18 205 28 225 16 6 -3 14 -6 20 -6 16 0 32 -44 27
-71 -3 -19 -18 -32 -58 -50 -57 -26 -128 -88 -121 -107 1 -5 15 -11 29 -11 15
-1 24 2 22 6 -3 4 6 4 20 -2 16 -6 27 -6 31 0 4 6 14 7 23 2 9 -5 28 -7 42 -5
31 4 35 4 88 0 24 -2 46 1 48 5 3 5 11 5 17 1 7 -4 127 -8 268 -8 l256 -1 0
995 c0 548 -1 999 -3 1002 -1 3 -40 -2 -86 -11 -46 -9 -100 -16 -120 -15 -21
0 -38 -2 -38 -5 0 -8 -130 -14 -330 -14 -211 -1 -273 10 -322 56 -17 16 -39
33 -48 38 -24 13 -148 5 -197 -12 -28 -10 -71 -14 -125 -13 -46 2 -83 4 -83 5
0 0 -67 3 -150 6 -421 12 -378 8 -395 38 -11 20 -20 25 -35 21 -100 -30 -221
-43 -249 -27 -5 3 -21 7 -35 8 -37 4 -51 8 -95 27 -21 9 -40 17 -43 17 -2 0
-30 17 -61 37 -116 76 -114 76 -381 77 l-204 1 -20 27 c-20 26 -20 30 -4 62
l16 34 -52 8 c-29 4 -117 8 -197 8 -132 1 -149 3 -190 25 -37 19 -132 36 -143
24z"/>
<path d="M22 7979 c-34 -13 -26 -56 17 -94 45 -39 64 -85 51 -121 -7 -17 -15
-24 -25 -20 -8 3 -17 2 -19 -3 -12 -18 -15 -72 -6 -88 5 -10 19 -42 31 -71 21
-50 23 -52 43 -38 33 21 122 15 141 -10 19 -25 18 -34 -5 -69 -11 -16 -20 -26
-20 -22 0 4 -6 2 -13 -4 -7 -7 -12 -24 -11 -38 1 -14 3 -37 3 -51 1 -22 8 -28
44 -38 43 -12 60 -25 178 -135 98 -93 112 -104 137 -112 18 -5 22 -3 22 17 1
60 54 75 120 33 45 -28 58 -30 83 -11 10 8 27 12 38 9 30 -8 69 -61 69 -94 0
-17 4 -28 9 -24 6 3 16 -2 23 -10 7 -9 18 -22 25 -29 10 -11 122 -33 146 -28
4 1 7 -2 7 -6 0 -4 12 -9 27 -10 15 -1 29 -5 32 -10 3 -4 13 -9 21 -11 8 -2
53 -17 100 -33 47 -16 93 -30 103 -31 9 0 17 -5 17 -9 0 -4 8 -8 19 -8 28 0
84 -26 105 -48 10 -12 25 -20 34 -20 10 0 42 -3 72 -7 30 -4 125 -8 211 -9
116 -1 160 -5 172 -15 9 -7 27 -11 39 -8 30 8 81 -15 96 -45 12 -22 19 -24 55
-21 131 14 276 -3 322 -37 6 -4 53 -11 105 -14 129 -9 172 -15 185 -26 13 -11
30 -8 106 15 87 27 130 28 195 5 77 -28 141 -47 184 -55 44 -9 203 -9 250 -1
47 8 74 14 78 16 1 2 7 4 12 5 6 1 12 4 15 5 3 1 8 3 13 4 4 1 32 10 62 21 30
11 57 20 60 20 3 1 24 7 47 13 47 14 133 31 191 38 59 7 337 2 337 -6 0 -1 10
-3 22 -4 20 -2 21 -1 9 23 -7 14 -11 32 -9 39 4 9 -10 6 -38 -9 -79 -40 -169
-20 -169 37 0 63 103 135 160 111 41 -18 81 -48 75 -57 -3 -5 -1 -11 4 -14 5
-4 13 -1 16 4 17 27 107 45 139 28 36 -20 65 -53 68 -80 l3 -26 35 15 c59 27
68 25 109 -17 44 -46 60 -48 122 -18 24 12 46 22 49 23 3 0 20 9 39 19 68 36
147 17 158 -37 6 -28 7 -29 57 -23 85 10 280 68 291 87 4 5 -14 10 -39 10 -25
1 -49 2 -53 3 -5 1 -22 5 -39 10 -24 5 -36 17 -49 47 -10 21 -16 41 -14 42 2
2 33 16 68 31 55 23 119 38 156 37 52 -2 123 -13 185 -30 41 -11 94 -21 118
-21 39 0 129 33 143 53 3 4 30 7 60 5 58 -3 55 -5 152 82 57 52 97 77 147 95
29 10 42 10 72 -2 35 -14 37 -17 34 -54 -2 -21 0 -39 3 -39 4 0 27 18 51 39
43 38 146 97 186 106 11 2 39 10 64 16 93 24 222 27 270 6 19 -9 55 -30 78
-47 38 -27 43 -35 38 -58 -6 -25 -3 -23 33 17 l38 43 29 -18 c34 -23 53 -20
120 18 40 22 63 28 91 25 22 -2 47 2 60 10 12 8 36 15 54 15 22 1 43 11 63 31
35 33 73 50 93 43 7 -3 13 -2 13 3 0 4 12 6 26 3 14 -2 37 1 51 9 21 11 29 11
53 -3 16 -9 31 -14 34 -11 3 3 60 7 128 9 142 4 352 13 388 17 24 3 60 -9 70
-23 6 -8 68 -30 86 -30 10 0 12 9 7 31 -11 54 22 90 87 95 14 1 25 3 25 4 0 1
15 2 33 3 17 1 32 0 32 -3 0 -3 12 -5 28 -4 48 2 62 -7 74 -48 9 -31 9 -44 0
-59 -17 -26 -17 -26 34 -33 79 -10 144 -67 128 -111 -6 -13 15 -15 157 -15
177 1 182 0 249 -25 25 -9 53 -19 63 -22 9 -3 17 -9 17 -14 0 -5 7 -9 15 -9 8
0 23 -8 34 -19 34 -34 193 -88 246 -83 97 9 122 13 165 30 40 15 100 2 128
-28 17 -18 36 -20 213 -26 107 -3 226 -7 264 -10 116 -7 137 -6 214 14 84 22
185 21 230 -2 16 -9 43 -28 61 -43 18 -15 40 -29 49 -31 24 -6 465 -9 475 -4
5 3 28 6 50 7 33 1 155 15 176 20 3 1 32 9 65 20 77 24 77 24 98 6 19 -16 48
-17 182 -7 138 11 175 15 185 21 5 3 11 1 15 -4 9 -16 37 0 86 48 25 25 52 51
60 56 42 31 204 83 279 90 19 2 35 4 35 5 0 2 99 10 153 13 l43 2 -24 -20
c-25 -21 -26 -45 -1 -45 8 0 25 -7 38 -15 22 -14 25 -14 40 0 9 9 16 14 16 10
0 -3 12 1 28 9 40 21 136 38 227 41 80 3 91 4 207 28 35 7 73 12 86 11 16 -1
22 3 20 15 -2 9 -15 16 -31 18 -35 2 -54 22 -52 52 2 24 28 52 90 98 30 22 30
22 -32 -1 -35 -14 -63 -22 -63 -19 0 3 -6 0 -13 -6 -8 -6 -17 -8 -20 -4 -4 3
-7 2 -7 -4 0 -5 -6 -10 -12 -10 -7 0 -53 -12 -102 -27 -108 -32 -137 -38 -201
-41 -57 -3 -81 7 -90 35 -9 28 -25 25 -64 -10 -69 -64 -111 -72 -156 -30 -14
13 -25 21 -25 17 0 -3 -13 -2 -29 3 -16 4 -32 5 -36 2 -9 -10 -149 -13 -162
-4 -17 11 -23 54 -10 70 13 16 -14 12 -67 -11 -21 -9 -42 -17 -45 -17 -4 0
-29 -11 -57 -24 -108 -52 -145 -67 -202 -80 -50 -11 -65 -11 -98 0 -36 13 -45
12 -114 -14 l-75 -27 -542 0 c-429 0 -543 3 -543 13 0 6 11 35 25 63 16 35 20
49 10 45 -36 -13 -212 -45 -282 -50 -12 -1 -24 -4 -27 -7 -3 -2 -55 -4 -116
-3 -177 3 -312 42 -394 114 -19 18 -40 29 -46 25 -18 -11 -53 -16 -137 -19
-91 -3 -105 4 -118 57 -11 44 11 74 69 93 41 14 47 19 31 24 -11 4 -28 6 -39
4 -10 -2 -25 3 -33 11 -12 13 -18 12 -48 -12 -35 -28 -48 -32 -105 -35 -64 -3
-85 8 -100 52 -7 23 -17 43 -22 46 -4 3 -36 7 -72 9 -69 5 -146 28 -157 47 -6
9 -21 10 -56 2 -43 -8 -89 -6 -149 9 -12 3 -48 19 -80 35 -88 44 -98 45 -148
22 -46 -20 -93 -26 -111 -12 -40 29 -55 67 -56 140 0 23 -2 42 -4 42 -3 0
-132 -59 -247 -113 -43 -21 -112 -53 -153 -73 l-76 -35 -61 30 c-34 17 -62 31
-62 31 -1 0 -2 -14 -3 -31 -2 -31 -38 -71 -95 -106 -16 -10 -28 -21 -28 -27 0
-11 -50 -58 -59 -54 -203 94 -262 145 -245 214 9 34 -6 30 -39 -12 -29 -35
-117 -96 -147 -101 -43 -6 -69 -6 -110 2 -53 10 -151 14 -165 6 -5 -3 -12 -6
-15 -6 -20 -1 -88 -30 -85 -36 5 -7 -22 -20 -53 -25 -8 -1 -64 -5 -125 -9 -62
-3 -143 -8 -182 -10 -68 -5 -146 -9 -330 -20 -49 -2 -126 -7 -170 -10 -44 -3
-111 -7 -150 -10 -38 -2 -113 -7 -165 -10 -364 -24 -413 -24 -435 -2 -37 38
-85 8 -200 -124 -42 -48 -114 -104 -151 -116 -34 -12 -77 4 -88 32 -3 9 -10
14 -16 10 -5 -3 -36 -9 -67 -12 -32 -3 -69 -13 -83 -23 -56 -39 -88 -31 -125
34 -12 20 -16 21 -215 30 -69 3 -168 8 -220 11 -52 3 -141 8 -197 10 -56 2
-107 6 -112 9 -5 4 -12 2 -16 -4 -4 -6 -11 -7 -17 -4 -11 7 -72 11 -278 18
-69 3 -125 6 -125 6 0 2 -23 3 -295 14 -85 4 -182 9 -215 11 -61 4 -276 15
-394 19 -45 2 -88 -4 -137 -20 -97 -29 -96 -29 -74 -67 36 -62 -3 -116 -90
-125 -47 -4 -97 14 -162 60 l-28 19 27 23 27 23 -25 8 c-13 4 -32 14 -41 23
-15 12 -18 12 -22 1 -2 -8 -10 -31 -16 -52 -16 -52 -48 -71 -106 -63 -25 3
-59 17 -77 30 -18 13 -57 36 -87 51 -60 30 -112 73 -104 87 14 22 -29 16 -65
-10 -36 -26 -53 -30 -103 -23 -11 2 -38 58 -31 65 3 3 8 18 9 33 2 15 8 29 14
31 5 2 10 10 10 18 0 14 -21 19 -75 16 -16 -1 -37 1 -45 4 -8 3 -37 7 -64 9
-27 2 -52 8 -55 12 -3 5 -18 16 -33 26 -21 13 -33 15 -52 7 -82 -31 -191 0
-259 73 -26 29 -33 31 -101 32 -52 1 -81 6 -102 19 -41 26 -65 58 -53 72 9 12
-17 23 -66 30 -11 1 -31 5 -45 9 -14 3 -39 7 -57 9 -44 5 -50 10 -57 56 -3 22
-12 40 -19 41 -32 3 -75 -4 -107 -18 -36 -15 -80 -26 -80 -20 0 2 11 26 25 52
14 26 23 50 20 53 -3 3 -20 7 -38 7 -52 3 -77 15 -83 40 -6 24 -8 24 -132 24
-70 0 -137 -5 -150 -10z m3825 -1068 c31 -46 30 -84 -4 -111 -24 -19 -36 -21
-95 -15 -92 8 -94 9 -97 60 -3 67 45 106 129 102 38 -2 47 -7 67 -36z"/>
<path d="M7789 7840 c-4 -29 -33 -94 -59 -131 -30 -41 -14 -36 29 9 20 21 51
47 69 57 25 15 31 24 26 40 -8 26 -7 25 -38 31 -14 2 -27 0 -27 -6z"/>
<path d="M8100 7691 c0 -6 4 -13 10 -16 6 -3 7 1 4 9 -7 18 -14 21 -14 7z"/>
<path d="M14470 7409 c-30 -16 -58 -30 -62 -31 -7 -3 -15 -35 -17 -64 -1 -7
-22 -10 -58 -8 -32 1 -77 3 -100 3 -34 1 -45 6 -62 30 -12 16 -22 41 -23 55
-3 31 -30 42 -83 32 -27 -5 -41 -17 -62 -49 -57 -91 -167 -211 -228 -248 -33
-21 -33 -21 40 -24 64 -2 129 19 144 48 13 25 171 109 244 131 53 16 115 13
155 -8 16 -8 35 -14 43 -12 28 5 63 19 74 30 6 6 28 24 48 40 30 24 34 32 26
48 -5 10 -8 22 -5 27 3 5 0 13 -7 18 -8 7 -30 1 -67 -18z"/>
<path d="M11015 7320 c-3 -5 -1 -10 4 -10 6 0 11 5 11 10 0 6 -2 10 -4 10 -3
0 -8 -4 -11 -10z"/>
<path d="M8296 7173 c-3 -3 -270 -13 -421 -16 -124 -3 -175 -10 -175 -25 0 -4
-17 -26 -38 -48 -38 -42 -38 -42 -61 -23 -19 15 -27 17 -44 7 -12 -6 -25 -15
-28 -21 -5 -7 -21 -6 -48 0 -34 9 -45 8 -64 -7 -27 -21 -81 -39 -127 -43 -20
-2 -41 -6 -48 -11 -6 -4 -12 -4 -12 0 0 4 -8 0 -17 -9 -10 -8 -43 -22 -73 -29
-52 -13 -85 -12 -188 7 -38 7 -36 13 21 74 33 36 35 41 20 49 -22 12 -195 8
-214 -4 -8 -5 -22 -10 -32 -11 -45 -7 -136 -63 -196 -120 -36 -35 -67 -63 -68
-63 -1 0 -28 11 -60 25 -60 27 -76 42 -68 62 10 28 -17 22 -52 -11 -121 -114
-160 -136 -227 -132 -35 3 -49 0 -56 -13 -5 -9 -10 -13 -10 -8 0 4 -14 0 -31
-9 -17 -8 -41 -18 -52 -20 -29 -6 -137 -7 -162 -1 -11 3 -27 7 -35 9 -8 1 -19
8 -23 13 -5 6 -5 0 -2 -12 12 -44 14 -68 7 -80 -9 -15 -168 -74 -176 -66 -3 4
-6 1 -6 -5 0 -7 -11 -12 -23 -12 -13 0 -27 -3 -31 -7 -4 -5 -12 -9 -17 -9 -5
-1 -10 -2 -11 -4 -2 -1 -10 -3 -18 -5 -8 -2 -41 -10 -73 -19 -59 -15 -121 -27
-167 -31 -14 -1 -25 -3 -25 -5 0 -5 -57 -5 -65 0 -5 3 -12 24 -16 45 -3 22 -7
41 -8 42 -1 1 -37 -16 -80 -39 -58 -29 -94 -41 -134 -43 -49 -3 -57 -1 -92 32
l-39 35 -106 -52 c-98 -48 -140 -58 -170 -40 -5 3 -26 7 -45 9 -19 2 -42 6
-50 11 -8 4 -76 6 -150 5 -132 -2 -149 -4 -218 -19 -19 -5 -43 -9 -55 -10 -12
-2 -58 -13 -102 -25 -44 -13 -87 -24 -95 -26 -8 -2 -30 -8 -47 -14 -18 -5 -33
-8 -33 -5 0 3 -8 1 -17 -5 -42 -22 -266 -33 -364 -18 -50 8 -138 36 -185 59
-37 19 -63 17 -148 -12 -75 -24 -113 -28 -144 -11 -25 13 -109 24 -122 16 -8
-5 -7 -12 2 -23 7 -9 8 -13 3 -10 -7 4 -10 -226 -10 -690 l0 -697 25 -2 c14
-1 88 -4 165 -7 77 -3 140 -6 140 -6 0 -1 63 -5 280 -15 178 -8 308 -14 420
-20 55 -2 152 -7 215 -10 135 -6 287 -13 420 -21 90 -5 168 -9 410 -19 102 -4
106 -5 129 -33 l24 -30 51 30 c49 29 52 30 78 15 15 -9 30 -12 32 -8 8 13 102
6 120 -8 14 -12 20 -11 39 5 12 11 25 23 28 28 35 47 160 158 204 180 57 30
78 29 125 -4 26 -19 48 -19 260 -6 41 3 120 7 175 10 110 6 248 15 340 21 120
9 493 31 656 40 49 2 77 10 105 28 80 50 197 61 349 34 75 -14 170 89 226 244
13 35 27 66 31 67 5 2 6 8 2 13 -13 21 8 28 41 15 19 -8 51 -17 71 -20 20 -4
49 -15 64 -26 23 -16 35 -18 71 -12 72 14 117 -13 178 -106 23 -34 58 -73 78
-85 36 -23 38 -23 72 -6 110 52 171 79 181 79 5 0 10 5 10 10 0 6 4 10 9 10
10 0 164 70 223 101 77 41 128 -8 128 -124 l0 -68 30 16 c62 32 143 21 238
-32 35 -19 66 -33 69 -30 3 3 15 2 28 -3 15 -6 41 -4 74 5 28 7 51 11 51 9 0
-3 9 0 20 6 18 9 23 7 38 -19 24 -43 47 -50 158 -49 l98 1 19 -57 c17 -50 21
-56 40 -50 37 11 55 37 62 89 10 86 14 91 38 57 12 -16 30 -37 40 -47 10 -10
25 -28 34 -41 8 -13 24 -24 35 -24 45 0 99 -25 144 -67 58 -53 83 -60 134 -40
21 8 41 12 44 9 13 -12 6 -100 -9 -112 -8 -7 -12 -16 -9 -21 6 -11 66 -37 98
-43 11 -3 42 -9 67 -14 69 -13 252 -7 366 13 92 17 101 20 92 36 -10 20 1 58
24 77 8 7 30 15 48 17 19 3 50 9 69 15 48 14 182 24 224 16 26 -5 37 -14 45
-37 15 -43 -2 -74 -50 -89 -40 -14 -112 -69 -128 -98 -8 -16 11 -17 237 -19
136 -1 303 -2 372 -3 69 -1 150 -1 181 -1 l56 1 0 970 c0 884 -1 970 -16 966
-15 -5 -28 -7 -108 -20 -87 -15 -218 -26 -349 -30 -56 -2 -106 -6 -113 -10 -6
-4 -11 -4 -11 1 0 4 -37 9 -83 10 -45 1 -91 3 -102 6 -11 2 -34 8 -52 12 -17
4 -48 23 -69 41 -20 19 -47 37 -60 40 -33 8 -129 -1 -190 -19 -28 -8 -73 -13
-100 -11 -96 5 -361 15 -493 18 -137 4 -150 7 -163 48 -2 6 -29 2 -63 -8 -58
-17 -205 -28 -205 -15 0 3 -17 7 -37 8 -40 2 -44 4 -143 51 -71 35 -99 51
-115 68 -27 28 -104 38 -319 39 -204 2 -219 3 -229 21 -17 29 -17 45 -2 75
l14 27 -47 8 c-26 4 -114 8 -197 9 -86 0 -159 5 -170 11 -74 40 -85 43 -144
41 -34 -1 -63 -3 -65 -4z"/>
<path d="M12929 7021 c-19 -15 -44 -33 -56 -40 -13 -6 -23 -16 -23 -22 0 -22
45 -27 72 -7 23 15 55 84 45 95 -2 1 -19 -10 -38 -26z"/>
<path d="M44 5607 c-8 -4 -14 -5 -14 -1 0 3 -7 1 -15 -6 -25 -21 -17 -55 19
-86 47 -41 71 -90 57 -120 -6 -13 -21 -26 -33 -29 -19 -5 -23 -12 -22 -43 1
-20 6 -48 12 -62 5 -14 16 -38 23 -55 7 -16 12 -33 11 -37 -3 -12 20 -9 47 6
28 15 86 11 118 -10 29 -18 24 -57 -13 -92 -26 -24 -29 -32 -24 -77 5 -47 7
-50 40 -56 19 -4 36 -12 38 -18 2 -6 9 -11 15 -11 7 0 42 -28 78 -63 180 -170
201 -183 212 -128 7 33 39 56 65 46 9 -3 17 -5 18 -3 0 2 9 -4 19 -12 37 -31
68 -38 98 -23 15 8 36 12 45 9 26 -9 65 -73 59 -96 -4 -15 0 -20 13 -20 10 0
27 -12 37 -26 12 -16 31 -27 49 -29 66 -7 112 -18 169 -40 33 -13 122 -43 198
-67 87 -27 147 -51 161 -65 30 -30 73 -35 294 -39 138 -2 189 -6 205 -17 13
-8 36 -12 53 -10 26 4 38 -1 66 -29 l34 -34 101 2 c101 2 180 -10 258 -39 22
-8 83 -17 135 -20 104 -6 158 -15 165 -28 3 -4 25 -2 50 5 24 8 46 11 49 8 4
-3 6 -1 6 5 0 5 6 10 13 11 6 0 29 5 50 10 41 11 82 4 160 -26 44 -17 91 -31
112 -33 2 0 19 -5 37 -10 35 -10 185 -13 228 -4 14 3 41 8 60 12 19 3 80 22
135 40 55 19 111 37 125 39 14 3 43 10 65 15 95 23 293 30 429 16 64 -7 68 -7
55 9 -8 9 -13 25 -11 36 4 23 0 23 -45 -2 -21 -11 -49 -20 -64 -20 -41 0 -88
20 -94 41 -19 58 59 138 130 134 17 -1 31 -4 33 -5 1 -1 5 -3 10 -4 15 -3 61
-49 56 -58 -8 -13 3 -10 43 12 49 26 97 25 136 -2 48 -32 57 -46 47 -74 l-10
-24 38 16 c66 30 86 29 114 -4 49 -58 60 -59 163 -9 68 33 103 44 132 43 50
-3 62 -11 79 -52 12 -28 19 -34 39 -30 14 3 30 8 36 12 7 4 9 3 5 -4 -4 -7 2
-8 21 -2 173 53 264 83 267 89 2 3 -26 7 -63 8 -37 1 -79 7 -94 12 -41 16 -71
101 -35 101 5 0 30 10 56 21 94 43 195 43 347 -1 46 -13 126 -20 140 -12 5 3
19 7 32 8 12 1 37 14 55 27 26 20 42 24 77 21 53 -4 80 9 151 75 98 92 174
125 229 97 27 -14 29 -20 26 -56 -4 -45 1 -49 30 -20 38 38 80 70 93 70 6 0
12 3 12 8 0 4 15 13 33 20 17 8 41 17 52 22 39 16 61 22 133 34 130 23 230 9
289 -41 12 -10 32 -27 44 -37 15 -13 19 -21 11 -24 -7 -2 -12 -8 -12 -13 0
-17 34 8 54 39 l19 29 32 -18 c25 -15 38 -17 64 -9 18 5 39 14 47 20 21 18
100 39 114 30 7 -4 26 0 44 10 17 10 45 17 61 16 21 -1 36 5 48 21 26 33 93
61 135 57 19 -2 43 3 54 10 18 13 68 10 68 -4 0 -4 28 -6 63 -5 34 2 139 6
232 10 94 4 195 8 225 10 43 2 63 -3 91 -21 20 -12 49 -24 65 -26 28 -3 29 -2
26 34 -5 50 31 88 85 89 21 1 61 2 88 3 28 1 60 -2 71 -7 35 -15 59 -87 34
-102 -19 -12 -10 -32 13 -30 59 5 149 -53 153 -98 0 -7 2 -17 2 -23 1 -7 51
-10 150 -9 133 1 211 -6 252 -22 8 -4 18 -5 23 -5 4 1 7 -2 7 -8 0 -5 9 -10
19 -10 11 0 21 -3 23 -7 6 -14 178 -108 178 -98 0 3 9 1 21 -6 27 -14 167 -19
199 -7 37 14 60 19 112 22 38 3 51 -1 74 -22 30 -28 14 -26 324 -36 91 -3 196
-8 234 -11 46 -3 85 0 119 10 28 8 71 18 96 21 25 3 49 8 54 11 4 2 7 0 7 -4
0 -5 16 -8 35 -7 19 1 38 -2 41 -7 3 -5 10 -7 15 -4 5 4 9 1 9 -4 0 -6 7 -11
15 -11 8 0 15 -4 15 -10 0 -5 7 -10 15 -10 8 0 15 -4 15 -10 0 -16 37 -30 93
-37 95 -11 396 -5 542 11 94 11 142 19 158 27 9 5 17 7 17 4 0 -3 13 1 30 10
32 16 70 20 70 7 0 -16 44 -30 68 -21 16 6 21 5 16 -3 -5 -7 -3 -8 5 -4 12 8
33 10 186 21 147 10 153 11 179 41 14 16 26 32 26 36 0 13 125 76 191 96 36
11 89 23 119 27 29 4 62 9 74 11 12 2 56 6 99 9 l79 4 -26 -20 c-24 -19 -36
-42 -18 -37 4 1 23 -6 44 -16 35 -17 37 -17 75 2 67 35 115 44 308 57 72 5 78
6 155 24 25 6 54 10 65 9 41 -2 46 1 29 21 -9 10 -24 17 -33 15 -42 -10 -61
43 -30 85 11 15 34 35 50 45 53 31 24 28 -82 -9 -57 -20 -111 -38 -119 -40 -8
-2 -53 -13 -99 -25 -136 -35 -201 -28 -220 23 -6 17 -9 16 -41 -7 -114 -83
-131 -87 -178 -41 -19 19 -31 22 -80 18 -142 -10 -163 -8 -177 10 -7 10 -11
31 -9 47 l5 29 -93 -38 c-51 -21 -128 -55 -171 -75 -87 -41 -188 -56 -213 -31
-15 15 -26 13 -134 -27 -64 -23 -69 -23 -390 -20 -179 1 -329 3 -335 3 -5 1
-37 0 -70 0 -88 -1 -97 -1 -135 0 -19 0 -41 0 -47 0 -7 -1 -21 -1 -30 -1 -10
0 -44 1 -75 1 -50 1 -56 3 -48 17 16 29 40 95 36 99 -2 2 -34 -3 -72 -11 -159
-35 -204 -41 -344 -41 -69 0 -143 3 -165 7 -94 16 -186 55 -240 102 -23 20
-36 25 -55 20 -14 -4 -63 -10 -110 -14 -105 -9 -125 1 -135 62 -7 38 -5 44 20
64 15 12 41 25 56 28 37 7 38 25 1 24 -15 -1 -37 4 -49 11 -18 9 -26 7 -53
-15 -25 -21 -43 -27 -91 -29 -85 -4 -95 0 -110 51 -8 24 -16 45 -19 45 -3 1
-25 3 -50 4 -72 4 -112 14 -163 39 -40 20 -55 22 -83 14 -53 -14 -135 1 -205
38 -83 44 -132 53 -165 29 -33 -22 -83 -28 -109 -11 -30 20 -55 76 -58 130 -1
25 -6 48 -10 52 -4 4 -7 2 -7 -4 0 -7 -9 -12 -20 -12 -11 0 -20 -5 -20 -11 0
-5 -4 -7 -10 -4 -5 3 -10 1 -10 -4 0 -6 -3 -10 -7 -9 -5 1 -21 -4 -36 -10 -16
-7 -33 -12 -38 -12 -5 0 -9 -4 -9 -9 0 -5 -10 -13 -22 -16 -26 -8 -145 -62
-168 -76 -8 -5 -22 -12 -30 -15 -8 -3 -29 -12 -47 -20 -17 -8 -38 -14 -47 -14
-21 0 -89 34 -109 55 -14 14 -15 12 -13 -12 3 -28 -12 -73 -24 -73 -3 0 -15
-8 -26 -19 -11 -10 -30 -24 -42 -30 -12 -6 -29 -25 -37 -42 -24 -45 -53 -52
-92 -21 -18 13 -33 22 -33 19 0 -3 -26 7 -58 23 -62 30 -108 75 -118 116 -6
24 12 72 38 104 19 22 85 70 97 70 15 0 7 40 -10 51 -27 17 -48 10 -55 -18 -4
-16 -10 -30 -13 -33 -3 -3 -19 -31 -34 -62 -29 -57 -83 -119 -137 -158 -17
-12 -30 -18 -30 -13 0 4 -4 2 -9 -6 -10 -15 -94 -18 -204 -6 -79 9 -145 -5
-200 -41 -26 -17 -56 -26 -95 -29 -93 -6 -263 -17 -322 -20 -30 -2 -98 -6
-150 -9 -89 -6 -189 -12 -355 -21 -38 -2 -70 -4 -70 -5 0 -1 -38 -3 -85 -6
-47 -2 -121 -6 -165 -8 -44 -3 -135 -8 -203 -11 -121 -7 -175 1 -194 29 -8 12
-80 -36 -117 -79 -62 -72 -150 -152 -183 -168 -49 -23 -71 -21 -100 8 -23 23
-57 29 -73 13 -3 -3 -22 -4 -41 -1 -21 3 -34 0 -34 -7 0 -6 -4 -9 -9 -6 -5 4
-11 3 -13 -1 -1 -5 -16 -15 -33 -24 -35 -20 -70 -11 -80 20 -3 12 -11 21 -16
21 -5 0 -9 7 -9 15 0 9 -9 15 -22 16 -32 0 -157 6 -328 14 -80 4 -176 9 -215
10 -38 2 -70 4 -70 4 0 1 -49 4 -110 6 -122 5 -308 14 -430 20 -44 3 -129 7
-190 10 -60 2 -162 7 -225 10 -63 3 -156 7 -207 9 -50 2 -96 7 -102 10 -5 4
-12 2 -16 -3 -3 -6 -15 -7 -28 -2 -26 9 -212 8 -244 -1 -12 -4 -46 -14 -76
-24 -55 -17 -55 -17 -36 -37 10 -12 19 -23 20 -26 9 -62 -13 -95 -73 -112 -53
-14 -109 1 -172 46 l-46 33 26 17 26 17 -33 20 c-19 11 -37 25 -41 32 -8 11
-29 -34 -21 -46 2 -4 -3 -20 -11 -36 -16 -32 -60 -55 -91 -49 -43 8 -75 20
-75 27 0 4 -39 27 -86 51 -78 40 -124 80 -124 108 0 17 -10 14 -47 -15 -19
-14 -48 -30 -64 -34 -26 -8 -35 -5 -55 15 -28 29 -32 79 -8 114 22 31 5 43
-58 37 -27 -2 -48 1 -48 6 0 5 -8 8 -17 7 -49 -4 -84 3 -118 27 -34 23 -43 24
-77 16 -81 -21 -200 8 -227 55 -6 10 -11 14 -11 9 0 -6 -11 4 -23 22 -13 17
-26 29 -29 27 -10 -10 -84 -12 -123 -3 -48 11 -95 53 -95 85 0 15 -6 23 -17
24 -10 0 -25 2 -33 4 -44 11 -136 28 -155 29 -5 1 -11 12 -13 26 -6 51 -21 68
-61 65 -20 -1 -49 -8 -66 -15 -16 -7 -33 -14 -37 -14 -3 -1 -10 -4 -14 -8 -4
-5 -13 -8 -20 -8 -9 0 -6 16 12 55 13 31 24 57 24 58 0 2 -19 4 -42 6 -50 3
-77 16 -87 43 -7 19 -16 20 -125 22 -65 0 -124 -3 -132 -7z m3792 -1059 c35
-34 41 -87 16 -118 -18 -22 -27 -25 -84 -23 -34 1 -75 6 -90 12 -24 9 -28 16
-28 50 0 47 25 81 71 97 48 16 88 10 115 -18z"/>
<path d="M14510 5051 c0 -5 -13 -12 -28 -16 -53 -11 -90 -41 -87 -69 2 -14 -1
-29 -6 -32 -17 -10 -169 -5 -192 7 -28 15 -35 25 -47 72 -11 36 -12 37 -60 37
-53 0 -47 6 -136 -117 -50 -68 -142 -161 -180 -181 -32 -17 -26 -23 22 -24 84
0 128 12 159 47 23 25 151 101 185 110 3 1 19 8 35 15 43 19 153 18 191 -2 28
-15 33 -15 71 2 55 24 126 89 114 104 -10 12 -11 16 -11 41 0 8 -7 15 -15 15
-8 0 -15 -4 -15 -9z"/>
<path d="M11010 4940 c0 -5 5 -10 10 -10 6 0 10 5 10 10 0 6 -4 10 -10 10 -5
0 -10 -4 -10 -10z"/>
<path d="M8400 4802 c0 -4 -42 -7 -93 -8 -50 0 -171 -4 -267 -8 -96 -5 -206
-8 -244 -8 l-69 1 -50 -54 -50 -54 -28 16 c-25 15 -30 15 -46 1 -28 -24 -49
-28 -82 -15 -25 9 -33 8 -48 -5 -23 -20 -105 -48 -142 -48 -16 0 -52 -12 -79
-26 -51 -26 -132 -35 -207 -22 -16 3 -40 6 -53 7 -28 1 -21 16 32 76 31 35 33
41 19 49 -25 14 -124 10 -228 -8 -5 -1 -40 -16 -76 -33 -68 -32 -104 -59 -169
-126 -35 -37 -37 -38 -66 -22 -16 8 -34 15 -40 15 -22 0 -66 51 -61 70 4 16 2
17 -19 8 -13 -6 -24 -15 -24 -20 0 -4 -37 -37 -82 -73 -78 -61 -86 -65 -134
-65 -37 0 -68 -8 -106 -27 -47 -24 -64 -27 -143 -26 -49 0 -103 4 -119 8 -18
5 -27 4 -23 -2 11 -17 17 -68 9 -79 -8 -12 -322 -120 -374 -129 -18 -3 -40 -8
-49 -11 -19 -5 -74 -13 -142 -19 -49 -4 -54 -1 -62 42 -2 10 -4 20 -5 23 -1 3
-2 8 -1 13 0 4 -3 7 -7 7 -14 0 -71 -30 -77 -41 -4 -5 -11 -7 -16 -4 -5 4 -9
2 -9 -3 0 -10 -24 -19 -75 -28 -16 -3 -31 -7 -33 -9 -9 -9 -80 20 -101 41 -29
29 -34 28 -158 -33 -83 -41 -95 -44 -125 -34 -18 6 -49 13 -68 15 -19 3 -48 8
-64 11 -50 10 -187 12 -246 3 -86 -13 -101 -16 -160 -29 -30 -6 -65 -12 -77
-13 -13 0 -23 -5 -23 -10 0 -5 -3 -7 -6 -3 -3 3 -18 1 -33 -5 -14 -5 -34 -12
-44 -14 -21 -5 -37 -9 -107 -28 -94 -26 -262 -37 -345 -23 -79 14 -101 20
-174 49 -69 27 -128 34 -141 16 -3 -4 -15 -9 -25 -11 -11 -1 -25 -6 -32 -10
-18 -11 -116 -16 -128 -7 -17 14 -84 25 -120 21 -7 -1 -10 -247 -10 -723 l0
-723 4626 -3 4626 -2 0 866 0 866 -31 -7 c-17 -4 -44 -9 -61 -10 -16 -2 -30
-4 -30 -5 0 -1 -16 -3 -35 -5 -19 -3 -55 -7 -80 -10 -75 -9 -260 -18 -345 -18
-214 1 -275 15 -336 76 -15 15 -36 27 -46 28 -10 0 -32 2 -50 3 -18 1 -63 -6
-100 -16 -77 -20 -113 -23 -228 -15 -44 3 -174 9 -290 12 -115 4 -220 7 -233
8 -13 1 -28 12 -35 26 -7 13 -15 23 -20 23 -20 -4 -64 -14 -77 -19 -38 -15
-140 -19 -195 -8 -96 19 -212 67 -254 106 -11 10 -43 27 -71 38 -45 17 -79 20
-268 20 -208 1 -218 2 -234 22 -22 26 -22 36 -4 71 12 24 12 27 -2 34 -10 4
-91 9 -181 10 -151 2 -225 12 -256 35 -19 14 -65 29 -65 21z"/>
<path d="M12907 4629 c-52 -36 -69 -58 -49 -60 4 0 16 -2 26 -4 31 -6 52 11
70 56 9 23 15 43 13 45 -2 2 -29 -14 -60 -37z"/>
</g>
</svg>
