<svg xmlns="http://www.w3.org/2000/svg" id="a" data-name="Layer_1" viewBox="0 0 1764 856.54"><defs><style>.b{fill:#ce8e00}.b,.c,.d{fill-rule:evenodd}.d{fill:#0c0c0c}</style></defs><path d="M24.06 706.92H0V540.37h134.55c30.78 0 51.11 2.84 60.99 8.51s14.83 16.05 14.83 31.12v21.8c0 15.08-4.92 25.41-14.76 31.01-9.84 5.6-30.19 8.4-61.05 8.4H24.06v65.71Zm0-84.54h117.37c17.42 0 28.96-1.79 34.64-5.37s8.51-11.11 8.51-22.58v-7.94c0-11.48-2.84-19.01-8.51-22.58s-17.22-5.37-34.64-5.37H24.06v63.84ZM240.41 706.92V540.37h24.06v148.25h150.44v18.3h-174.5z" class="d"/><path d="M473.88 652.69H604.4l-65.78-95.76-64.74 95.76ZM410 706.92l112.34-166.55h31.99l112.6 166.55h-25.48l-25.36-36.73H462.14l-24.71 36.73h-27.44ZM732.1 706.92h-24.07V558.94h-95.79v-18.57h215.64v18.57H732.1v147.98zM874.55 706.92h-24.06V540.37h24.06v166.55zM942.63 706.92h-24.06V540.37h37.83l175.01 147.53V540.37h23.91v166.55h-35.1L942.63 557.15v149.77zM1278.93 708.92c-18.98 0-33.02-.88-42.12-2.63-9.1-1.75-16.55-4.75-22.36-9-6.33-4.62-10.92-10.77-13.78-18.44-2.86-7.68-4.29-17.85-4.29-30.52V540.37h24.68v107.96c0 8.88.52 15.29 1.56 19.24 1.04 3.95 2.77 7.38 5.2 10.29 3.38 4.25 8.21 7.33 14.5 9.23 6.28 1.9 15.02 2.85 26.2 2.85h79.58c11.27 0 20.02-.95 26.26-2.85 6.24-1.9 11.1-4.98 14.56-9.23 2.43-2.91 4.14-6.34 5.14-10.29 1-3.95 1.5-10.37 1.5-19.24V540.37h24.68V647.1c0 12.74-1.43 23.14-4.29 31.19-2.86 8.05-7.37 14.38-13.52 19-5.55 4.25-12.87 7.25-21.97 9s-23.23 2.63-42.38 2.63h-59.16ZM1484.4 706.92h-23.44V540.37h34.71l116.22 144.74 116.36-144.74H1764v166.55h-23.44V560.28l-119.05 146.64h-18.07L1484.4 560.28v146.64zM650.73 101.65l.8-.06 107.83 5.2 1.15.66 1.49 2.34 5.48-3.26 1.86 1.45c2.33-.48 5.81-1.47 7.44 1.09 1.68-1.33 2.99-2.59 4.39-4.21 2.49-2.91 5.83-6.15 9.12-7.8 1.91-1.03 4.16-.71 5.7.81.61.68 1.44.99 2.35.86l72.75-4.42c1.57-1.36 3.17-2.22 5.17-2.77 4.75-1.22 9.05-1.23 13.81-.05 7.71.74 12.1-13.43 13.21-17.63.86.29 3.68 1.19 4.29 1.59 2.18-.04 4.31.82 5.79 2.43.24-.11 2.08-.56 2.55-.63 3.7-.56 6.74 1.84 8.12 5.02 1.38 2.73 3.46 4.61 6.32 5.69l24.74-11.64 1.62.24c1.38 1.24 2.52 2.1 2.67 4.12l.12 4.78c.02.49.06.9.16 1.39.31-.14.55-.29.82-.5 3.53-2.52 9.13-.83 12.18 1.21 2 1.31 4.01 1.95 6.4 2l7.17-1.63c1.12 2.6 1.05 3.26 4.13 3.66 3.2.34 5.95.29 9.13-.19l2.02 5.7c.59 0 1.09-.07 1.67-.2 1.24-.36 2.09-1.36 2.26-2.63l.82-6.12 5.92 7.08c4.57.15 6.14 1.32 9.24 4.64 1.2 1.19 2.82 1.59 4.43 1.11l3.5-1.04v4.86l-.63 1.19-.97.66c7.98 5.57 23.44 3.36 31.96 1.47-1.2-1.63-.56-4.2 1.26-5.08.76-.36 6.79-1.57 8.09-1.77 2.22-.34 5.66-.7 7.88-.38l2.11.49 1.18 1.74-.45 3.16c-4.13 1.4-7.1 3.16-9.44 6.82l42.93.29V0H650.73v101.65ZM1113.27 135.12c-8.83 2.36-31.12 3.73-39.17 2.31-2.12-.38-5.1-1.02-6.35-3.02-1.96-3.14-9.3-1.62-11.38-.81-1.06.43-2.02.66-3.16.76-2.32.2-4.31.1-6.6-.34l-27.98-.93c-.13-.53-.52-2.25-.79-2.51a.75.75 0 0 0-.42 0c-2.14.63-3.95 1.13-6.11 1.69-.17.05-.32.07-.5.08-7.37.5-13.8-1.32-19.81-5.6-1.01-.75-1.39-1.13-2.53-1.6-2.3-.94-4.39-1.38-6.88-1.44l-15.47.06c-.82.04-1.58.25-2.41 0-1.27-.37-2.3-1.6-2.18-2.98.05-.52.16-.97.4-1.44l.99-1.57c-3.18-1.11-9.85-1.2-12.67-.88-4.39.6-8.34-.3-12.02-2.76l-29.34 1.32-.46-.29c-.87.36-1.81.31-2.71.15-1.83-.33-3.59.3-4.3 2.12l-3.13 3.44c-.58-.42-2.28-1.68-2.74-1.76-.03 0-.06 0-.09.03l-.32.41-2.89 1.73-2.55-1a2.05 2.05 0 0 0-1.6.55c-2.26 1.93-6.17 2.74-9.05 2.48-.66.62-1.31 1.06-2.12 1.46-3.16 1.45-6.25 1.79-9.65 1.08l-4.59-.96 4.84-5.46c-2.16-.79-4.15-1-6.43-.68h-1.15c-7.01.62-12.78 3.61-17.33 8.98l-1.32 1.56-5.89-2.62-.88-1.4.05-1.96c-.71.41-1.28.8-1.92 1.32l-.37.46c-1.2 1.29-7.15 6.87-9.57 6.88l-3.66-.29c-5.14 3.7-11.29 3.82-17.44 1.74.15.17.3.33.42.53l.35.66c.29.64.41 1.25.37 1.96l-.11 1.81c-12.23 4.27-19.01 7.25-30.98 7.96l-1-4.71c-.78.23-2.9 1.34-3.61 1.8-2.43 1.65-4.9 2.46-7.84 2.57-1.93-.12-3.33-.84-4.54-2.35l-1.1-1.15-11.03 5.29c-6.48-1.8-13.64-2.78-20.38-1.97-6.61.95-12.13 2.17-18.52 4.1-5.55 1.68-10.44 2.45-16.24 2.54-5.88.07-10.89-1.09-16.13-3.76-1.08-.46-2.12-.57-3.28-.36-1.87.62-3.44 1.17-5.3 1.82-2.17.73-4.76.93-6.67-.57-.34-.09-3.14-.45-3.68-.49l-1.6-.04v74.51l.8-.06 107.83 5.2 1.15.66 1.49 2.34 5.48-3.26 1.86 1.45c2.33-.48 5.81-1.47 7.44 1.09 1.68-1.33 2.99-2.59 4.39-4.21 2.49-2.91 5.83-6.15 9.12-7.8 1.91-1.03 4.16-.71 5.7.81.61.68 1.44.99 2.35.86l72.75-4.42c1.57-1.36 3.17-2.22 5.17-2.77 4.75-1.22 9.05-1.23 13.81-.05 7.71.74 12.1-13.43 13.21-17.63.86.29 3.68 1.19 4.29 1.59 2.18-.04 4.31.82 5.79 2.43.24-.11 2.08-.55 2.55-.63 3.7-.56 6.74 1.84 8.12 5.02 1.38 2.73 3.46 4.61 6.32 5.69l24.74-11.64 1.62.24c1.38 1.24 2.52 2.1 2.67 4.12l.12 4.78c.02.49.06.9.16 1.39.31-.14.55-.29.82-.5 3.53-2.52 9.13-.83 12.18 1.21 2 1.31 4.01 1.95 6.4 2l7.17-1.63c1.12 2.6 1.05 3.26 4.13 3.66 3.2.34 5.95.29 9.13-.19l2.02 5.7c.59 0 1.09-.07 1.67-.2 1.24-.36 2.09-1.36 2.26-2.63l.82-6.12 5.92 7.08c4.57.15 6.14 1.32 9.24 4.64 1.2 1.19 2.82 1.59 4.43 1.11l3.5-1.04v4.86l-.63 1.19-.97.66c7.98 5.57 23.44 3.36 31.96 1.47-1.2-1.63-.56-4.2 1.26-5.08.76-.36 6.79-1.57 8.09-1.77 2.22-.34 5.66-.7 7.88-.38l2.11.49 1.18 1.74-.45 3.16c-4.13 1.4-7.1 3.16-9.44 6.82l42.93.29V135.09ZM1113.27 257.06c-8.83 2.36-31.12 3.73-39.17 2.31-2.12-.38-5.1-1.02-6.35-3.02-1.96-3.14-9.3-1.62-11.38-.81-1.06.43-2.02.66-3.16.76-2.32.2-4.31.1-6.6-.34l-27.98-.93c-.13-.53-.52-2.25-.79-2.51a.75.75 0 0 0-.42 0c-2.14.63-3.95 1.13-6.11 1.69-.17.05-.32.07-.5.08-7.37.5-13.8-1.32-19.81-5.6-1.01-.75-1.39-1.13-2.53-1.6-2.3-.94-4.39-1.38-6.88-1.44l-15.47.06c-.82.04-1.58.25-2.41 0-1.27-.37-2.3-1.6-2.18-2.98.05-.52.16-.97.4-1.44l.99-1.57c-3.18-1.11-9.85-1.2-12.67-.88-4.39.6-8.34-.3-12.02-2.76l-29.34 1.32-.46-.29c-.87.36-1.81.31-2.71.15-1.83-.33-3.59.3-4.3 2.12l-3.13 3.44c-.58-.42-2.28-1.68-2.74-1.76-.03 0-.06 0-.09.03l-.32.41-2.89 1.73-2.55-1a2.05 2.05 0 0 0-1.6.55c-2.26 1.93-6.17 2.74-9.05 2.48-.66.62-1.31 1.06-2.12 1.46-3.16 1.45-6.25 1.79-9.65 1.08l-4.59-.96 4.84-5.46c-2.16-.79-4.15-1-6.43-.68h-1.15c-7.01.62-12.78 3.61-17.33 8.98l-1.32 1.56-5.89-2.62-.88-1.4.05-1.96c-.71.41-1.28.8-1.92 1.32l-.37.46c-1.2 1.29-7.15 6.87-9.57 6.88l-3.66-.29c-5.14 3.7-11.29 3.82-17.44 1.74.15.17.3.33.42.53l.35.66c.29.64.41 1.25.37 1.96l-.11 1.81c-12.23 4.27-19.01 7.25-30.98 7.96l-1-4.71c-.78.23-2.9 1.34-3.61 1.8-2.43 1.65-4.9 2.46-7.84 2.57-1.93-.12-3.33-.84-4.54-2.35l-1.1-1.15-11.03 5.29c-6.48-1.8-13.64-2.78-20.38-1.97-6.61.95-12.13 2.17-18.52 4.1-5.55 1.68-10.44 2.45-16.24 2.54-5.88.07-10.89-1.09-16.13-3.76-1.08-.46-2.12-.57-3.28-.36-1.87.62-3.44 1.17-5.3 1.82-2.17.73-4.76.93-6.67-.57-.34-.09-3.14-.45-3.68-.49l-1.6-.04v71.37l.8-.06 107.83 5.2 1.15.66 1.49 2.34 5.48-3.26 1.86 1.45c2.33-.48 5.81-1.47 7.44 1.09 1.68-1.33 2.99-2.59 4.39-4.21 2.49-2.91 5.83-6.15 9.12-7.8 1.91-1.03 4.16-.71 5.7.81.61.68 1.44.99 2.35.86l72.75-4.42c1.57-1.36 3.17-2.22 5.17-2.77 4.75-1.22 9.05-1.23 13.81-.05 7.71.74 12.1-13.43 13.21-17.63.86.29 3.68 1.19 4.29 1.59 2.18-.04 4.31.82 5.79 2.43.24-.11 2.08-.56 2.55-.63 3.7-.56 6.74 1.84 8.12 5.02 1.38 2.73 3.46 4.61 6.32 5.69l24.74-11.64 1.62.24c1.38 1.24 2.52 2.1 2.67 4.12l.12 4.78c.02.49.06.9.16 1.39.31-.14.55-.29.82-.5 3.53-2.52 9.13-.83 12.18 1.21 2 1.31 4.01 1.95 6.4 2l7.17-1.63c1.12 2.6 1.05 3.26 4.13 3.66 3.2.34 5.95.29 9.13-.19l2.02 5.7c.59 0 1.09-.07 1.67-.2 1.24-.36 2.09-1.36 2.26-2.63l.82-6.12 5.92 7.08c4.57.15 6.14 1.32 9.24 4.64 1.2 1.19 2.82 1.59 4.43 1.11l3.5-1.04v4.86l-.63 1.19-.97.66c7.98 5.57 23.44 3.36 31.96 1.47-1.2-1.63-.56-4.2 1.26-5.08.76-.36 6.79-1.57 8.09-1.77 2.22-.34 5.66-.7 7.88-.38l2.11.49 1.18 1.74-.45 3.16c-4.13 1.4-7.1 3.16-9.44 6.82l42.93.29v-97.09ZM1113.27 375.87c-8.83 2.36-31.12 3.73-39.17 2.31-2.12-.38-5.1-1.02-6.35-3.02-1.96-3.14-9.3-1.62-11.38-.81-1.06.43-2.02.66-3.16.76-2.32.2-4.31.1-6.6-.34l-27.98-.93c-.13-.53-.52-2.25-.79-2.51a.75.75 0 0 0-.42 0c-2.14.63-3.95 1.13-6.11 1.69-.17.05-.32.07-.5.08-7.37.5-13.8-1.32-19.81-5.6-1.01-.75-1.39-1.13-2.53-1.6-2.3-.94-4.39-1.38-6.88-1.44l-15.47.06c-.82.04-1.58.25-2.41 0-1.27-.37-2.3-1.6-2.18-2.98.05-.52.16-.97.4-1.44l.99-1.57c-3.18-1.11-9.85-1.2-12.67-.88-4.39.6-8.34-.3-12.02-2.76l-29.34 1.32-.46-.29c-.87.36-1.81.31-2.71.15-1.83-.33-3.59.3-4.3 2.12l-3.13 3.44c-.58-.42-2.28-1.68-2.74-1.76-.03 0-.06 0-.09.03l-.32.41-2.89 1.73-2.55-1a2.05 2.05 0 0 0-1.6.55c-2.26 1.93-6.17 2.74-9.05 2.48-.66.62-1.31 1.06-2.12 1.45-3.16 1.45-6.25 1.79-9.65 1.08l-4.59-.96 4.84-5.46c-2.16-.79-4.15-1-6.43-.68h-1.15c-7.01.62-12.78 3.61-17.33 8.98l-1.32 1.56-5.89-2.62-.88-1.4.05-1.96c-.71.41-1.28.8-1.92 1.32l-.37.46c-1.2 1.29-7.15 6.87-9.57 6.88l-3.66-.29c-5.14 3.7-11.29 3.82-17.44 1.74.15.17.3.33.42.53l.35.66c.29.64.41 1.25.37 1.96l-.11 1.81c-12.23 4.27-19.01 7.25-30.98 7.96l-1-4.71c-.78.23-2.9 1.34-3.61 1.8-2.43 1.65-4.9 2.46-7.84 2.57-1.93-.12-3.33-.84-4.54-2.35l-1.1-1.15-11.03 5.29c-6.48-1.8-13.64-2.78-20.38-1.97-6.61.95-12.13 2.17-18.52 4.1-5.55 1.68-10.44 2.45-16.24 2.54-5.88.07-10.89-1.09-16.13-3.76-1.08-.46-2.12-.57-3.28-.36-1.87.62-3.44 1.17-5.3 1.82-2.17.73-4.76.93-6.67-.57-.34-.09-3.14-.45-3.68-.49l-1.6-.04v72.7h462.54v-86.66Z" class="d"/><path d="M1508.55 742.01H255.45v13.6h1253.1v-13.6zM1021.4 107.94c-2.17 1.93-6.87 1.08-9.03 1.33l-1.69.39-1.51-.68c-3.55-6.54.9-6.65 5.35-8.18h.01c-1.62-.45-2.71-.43-4.27-.48l-.94-.46-.69-.82c-3.03 3.69-6.59 3.58-10.97 2.71l-1.7-4.8c-3.17.18-9.81-.12-12.45-3.11l-3.9.89c-3.58.03-6.63-.85-9.65-2.76l-3.36-1.49c-.85-.24-2.37-.46-3.21.12-.86.66-1.69 1.07-2.73 1.36-4.31 1.25-6.08-2.68-6.34-6.27l-.07-3.29-23.53 11.07c-2.74-.7-4.92-1.83-7.08-3.65l.75 1.48-.56 2.38-.47.72-5.14 3.87-1.58 2.77-2.16.45-2.28-1.69c-1.88-.59-3.42-1.24-5.15-2.19l-.12-.07c-2.84-1.77-5.87-4.84-3.66-8.4 1.81-2.67 3.99-4.51 6.93-5.84l-.43-.22-.36-1.82-.02-.04c-.55-.39-1.92-.48-2.71-.55-2.2 6.77-8.25 16.96-17.17 16.01-4.1-1.12-7.82-1.17-11.95-.16-1.75.49-3.02 1.57-4.3 2.82l-74.33 4.5c-2.42.31-4.61-.41-6.38-2.08l-.26.06c-2.93 1.65-5.11 3.57-7.13 6.26-2.12 2.74-6.34 6.57-9.41 7.22-1.53.32-3.54-1.1-3.66-2.63l-4 .83c-.5.08-1.43.05-1.95-.19l-4.66 2.77-1.93-.46-2.41-3.77-105.62-5.1c-2.36.02-7.76 2.04-9.99 2.8 1.95 1.29 3.34 4.41 1.15 6.32l-1.15.82c-4.96 2.79-8.78-.72-12.56-3.08l2.62-2.17c.08-.06.14-.12.22-.18-2.14-.17-2.98-1.13-4.48-2.59l-.53 2.99-.11.41-.97 2.04c-1.61 2.32-5.42 1.55-7.37.51l-.4-.27-.92-.92c-.41-.32-4.01-2.11-4.9-2.53-2.5-.76-4.27-2.63-4.88-5.17l-1.31.69-2.43 1.85c-1.05.68-2.28.92-3.48.56-2.47-.72-2.24-3.5-1.83-5.33.23-1.04.88-1.75 1.74-2.32-2.15-1.24-3.84-.91-6.36-.5l-.36-.87c-2.59.55-6.13-.19-7.89-2.34a.994.994 0 0 0-.58-.38l-1.08.35c-5.91 2.24-11.38-.59-15-5.27-4.56.46-9.46.92-11.39-4.14l.45-1.05-11.07-2.13-.16-1.84c-.09-.96-.46-1.75-1.15-2.43-1.32-1.13-7.36 1.62-9.59 2.55l2.84-5.92-.04-.11-.4-.08-3.76-.4c-1.57-.3-2.74-1.63-2.66-3.22-3.07.35-5.68.4-8.76.17-1.85-.25-3.48-.05-5.21.64-1.46.8-.5 2.21-.58 3.37l2.17 1.49c1.54 1.31 2.03 3 2.68 4.79l-1.05 1.94-2.03.47-.33 3.15 2.54 6.24c.13.42.11.43.11.78 1.22-.34 1.97-.73 3.13-1.38l3.18.14c.64.06 1.14.24 1.67.6.6.46.95 1.05 1.09 1.79.04.5 0 1.12-.23 1.59-.52 1.08-2.24 2.07-3.14 2.61l.32.59.15.56.08 3.39c.11.71.36.69.97.83 1.78.27 3.23.93 4.61 2.09 3.7 3.35 6.78 6.23 10.37 9.69.56.42 2.52 1.27 2.9 1.26v-.36l-.04-1.12c.01-.16.34-1.2.53-1.51 1.94-3.12 5.61.34 7.35 1.1.15.06 1.17.35 1.26.35l1.81-1.37 1.91.2 2.67 3.03.19 1.49-.58 1.15c2.09-.09 3 .82 3.54 2.7 4.71.3 8.66 1.27 12.96 3.2l11.81 3.8c2.07.35 3.69 1.46 4.78 3.25.56-.23 2.05-.19 2.83-.09l4.55.81 13.54-.18c1.42-.09 2.44.31 3.45 1.48l.13.18c2.75-1.6 5.6.52 6.47 3.15 3.08-.54 5.74-.71 8.87-.57l4.2.47c2.31.31 3.25.91 5.37 1.87l1.3.36 9.78.57c1.02.11 3.1.67 4.09 1.37.03.02.05.03.09.04l1.94-.37 5.41-1.86c2.37-.51 4.53-.3 6.76.66 9.43 4.18 18.91 4.51 28.61 1.01 12.12-4.61 23.5-5.71 36.28-3.5-1.4-.57-1.6-2.88-1.42-3.84-.28.12-.53.18-.83.2-1.85 1.81-5.58 2.55-7.92 1.31-3.18-1.68-.9-5.1.66-6.56 2.04-1.9 5.99-2.41 7.92-.17l.36.02 1.32 1.41v1.33c2.29-2.35 7-3.83 9.46-.78l.42.03 1.32 1.41v1.5c.01.56-.13 1.04-.45 1.5l4.69-2.25 1.56.29 3.22 3.36c.32.38 1.48.51 2.17.3l8.01-3.81c.24-.09 1.76-.49 1.86-.5 1.79-.18 3.43.72 4.58 2.02l.53 2.5c7.62-.86 11.03-2.36 18.64-5.02l-5.85-.33-2.01-.3c-.17-.04-1.01-.4-1.27-.53-1.66-.86-1.81-2.68-2.19-4.26l6.02-2.56c3.96-1.45 10.58-.48 14.47.82 5.38 1.8 9.25 1.41 13.87-2.25l4.79.4c1.6-1.02 5.32-4.37 6.71-5.79 1.37-1.4 4.7-3.01 6.15-3.45 1.83-.55 3.23.33 4.77 1.32l-.11 4.1.15.07c5.92-6.19 12.34-8.57 20.75-9.43 6.5-.67 9.27.46 14.36 5.19l-1.59 1.8c2.32-.49 3.05-2.35 4.1-4.13l3.02 1.76c1.59 0 2.94-.43 4.24-1.34 2.23-1.68 4.31-2.2 6.97-1.34 1.34-1.39 3.64-2.08 5.46-1.27 1.79-3.16 5.19-4.76 8.77-4.12.05 0 .84.1.86.08l1.71-1.32 2.31.58.31.69 28.94-1.22c1.64 1.59 4.05 2.68 6.38 2.67-.8-2.03-.74-4.09 1-5.53 1.81-1.5 7.98-.97 10.87-.83l1.17.83.59 1.49.19.68c.5 1.53-.18 2.68-1.41 3.52 3.62.31 9.36 1.15 9.41 6.04 0 .17-.11.73-.15.82l13.52-.13c4.52.03 8.53 1.48 12.32 4 4.93 3.51 10.18 5.02 16.22 4.67l5.85-1.62c2.48-.76 5.06.24 6.4 2.46l24.73.82c1.87.38 3.49.49 5.39.35l2.02-.49c5.99-1.95 12.53-2.77 17.33 2.64l.3.25c2.92 1.76 37.25 1.18 41.98-2.73h1.77l1.94 1.62 20.09-1.57 2.15-2.81c6.8-6.76 20.93-7.41 28.68-7.8l-9.61 6.67.91 1.05c3.69 1.27 4.74-2.68 5.45-5.4l4.75 2.29c3.21-2.31 8.64-3.3 12.36-3.51 4.89.08 9.04-.48 13.74-1.84l.34-.1h4.37l-.26-.15-.53-.59-.45-1.05v-.13c-.67.23-.88.31-1.58.28-.27-.03-.49-.08-.74-.19a2.51 2.51 0 0 1-1.34-3.29c.77-1.85 4.73-4.25 6.31-5.34-6.02 2.3-22.31 8.18-27.07 6.8-1.28-.49-2.09-1.62-2.14-2.99-1.45.2-3.34 2.32-4.62 3.34 0 0-1.98 1.2-2.13 1.26-.22.09-1.72.16-2.21.05-1.07-.44-1.85-1.16-2.35-2.21l-1.16-.22-9.23.6c-1.44-.03-2.61-1.17-2.57-2.64.03-1.04.51-1.46 1.08-2.23-5.16 1.79-9.43 3.59-14.32 6.03-1.92.94-8.96 3.58-11.13.61l-9 3.09-.41.07-53.17-.36c.8-2.19 1.6-4 2.68-6.07-12.04 3.02-33.03 6.98-43.42-4.21Zm-337.49 13.5-.89-.33 1.05.12.29-.08.11-.06-.08.05.1-.03c-.22.09-.39.21-.58.33Zm26.39 8.15c.43 1.28.11 2.6-.87 3.53l-.31.3-1.26.55c-1.58.49-7.21-.5-8.04-.83-1.83-4.97 1.71-7.63 6.18-7.69 2.55-.03 3.71 2.12 4.29 4.14Z" class="b"/><path d="m921.71 87.92.36 1.15 1.39.6c-.66-.57-1.18-1.09-1.75-1.75ZM742.43 142.11c-.3.04-.55.06-.85.07.17.04.32.07.49.11l.37-.18ZM1021.4 229.89c-2.17 1.93-6.87 1.08-9.03 1.33l-1.69.39-1.51-.68c-3.55-6.54.9-6.65 5.35-8.18h.01c-1.62-.45-2.71-.43-4.27-.48l-.94-.46-.69-.82c-3.03 3.69-6.59 3.58-10.97 2.71l-1.7-4.8c-3.17.18-9.81-.12-12.45-3.11l-3.9.89c-3.58.03-6.63-.85-9.65-2.76l-3.36-1.49c-.85-.24-2.37-.46-3.21.12-.86.66-1.69 1.07-2.73 1.36-4.31 1.25-6.08-2.68-6.34-6.27l-.07-3.29-23.53 11.07c-2.74-.7-4.92-1.83-7.08-3.65l.75 1.48-.56 2.38-.47.72-5.14 3.87-1.58 2.77-2.16.45-2.28-1.69c-1.88-.59-3.42-1.24-5.15-2.19l-.12-.07c-2.84-1.77-5.87-4.84-3.66-8.4 1.81-2.67 3.99-4.51 6.93-5.84l-.43-.22-.36-1.82-.02-.04c-.55-.39-1.92-.48-2.71-.55-2.2 6.77-8.25 16.96-17.17 16.01-4.1-1.12-7.82-1.17-11.95-.16-1.75.49-3.02 1.57-4.3 2.82l-74.33 4.5c-2.42.31-4.61-.41-6.38-2.08l-.26.06c-2.93 1.65-5.11 3.57-7.13 6.26-2.12 2.74-6.34 6.57-9.41 7.22-1.53.32-3.54-1.1-3.66-2.63l-4 .83c-.5.08-1.43.05-1.95-.19l-4.66 2.77-1.93-.46-2.41-3.77-105.62-5.1c-2.36.02-7.76 2.04-9.99 2.8 1.95 1.29 3.34 4.41 1.15 6.32l-1.15.82c-4.96 2.79-8.78-.72-12.56-3.08l2.62-2.17c.08-.06.14-.12.22-.18-2.14-.17-2.98-1.13-4.48-2.59l-.53 2.99-.11.41-.97 2.04c-1.61 2.32-5.42 1.55-7.37.51l-.4-.27-.92-.92c-.41-.32-4.01-2.11-4.9-2.53-2.5-.76-4.27-2.63-4.88-5.17l-1.31.69-2.43 1.85c-1.05.68-2.28.92-3.48.56-2.47-.72-2.24-3.5-1.83-5.33.23-1.04.88-1.75 1.74-2.32-2.15-1.24-3.84-.91-6.36-.5l-.36-.87c-2.59.55-6.13-.19-7.89-2.34a.994.994 0 0 0-.58-.38l-1.08.35c-5.91 2.24-11.38-.59-15-5.27-4.56.46-9.46.92-11.39-4.14l.45-1.05-11.07-2.13-.16-1.84c-.09-.96-.46-1.75-1.15-2.43-1.32-1.13-7.36 1.62-9.59 2.55l2.84-5.92-.04-.11-.4-.08-3.76-.4c-1.57-.3-2.74-1.63-2.66-3.22-3.07.35-5.68.4-8.76.17-1.85-.25-3.48-.05-5.21.64-1.46.8-.5 2.21-.58 3.37l2.17 1.49c1.54 1.31 2.03 3 2.68 4.79l-1.05 1.94-2.03.47-.33 3.15 2.54 6.24c.13.42.11.43.11.78 1.22-.34 1.97-.73 3.13-1.38l3.18.14c.64.06 1.14.24 1.67.6.6.46.95 1.05 1.09 1.79.04.5 0 1.12-.23 1.59-.52 1.08-2.24 2.07-3.14 2.61l.32.59.15.56.08 3.39c.11.71.36.69.97.83 1.78.27 3.23.93 4.61 2.09 3.7 3.35 6.78 6.23 10.37 9.69.56.42 2.52 1.27 2.9 1.26v-.36l-.04-1.12c.01-.16.34-1.2.53-1.51 1.94-3.12 5.61.34 7.35 1.1.15.06 1.17.35 1.26.35l1.81-1.37 1.91.2 2.67 3.03.19 1.49-.58 1.15c2.09-.09 3 .82 3.54 2.7 4.71.3 8.66 1.27 12.96 3.2l11.81 3.8c2.07.35 3.69 1.46 4.78 3.25.56-.23 2.05-.19 2.83-.09l4.55.81 13.54-.18c1.42-.09 2.44.31 3.45 1.48l.13.18c2.75-1.6 5.6.52 6.47 3.15 3.08-.54 5.74-.71 8.87-.57l4.2.47c2.31.31 3.25.91 5.37 1.87l1.3.36 9.78.57c1.02.11 3.1.67 4.09 1.37.03.02.05.03.09.04l1.94-.37 5.41-1.86c2.37-.51 4.53-.3 6.76.66 9.43 4.18 18.91 4.51 28.61 1.01 12.12-4.61 23.5-5.71 36.28-3.5-1.4-.57-1.6-2.88-1.42-3.84-.28.12-.53.18-.83.2-1.85 1.81-5.58 2.55-7.92 1.31-3.18-1.68-.9-5.1.66-6.56 2.04-1.9 5.99-2.41 7.92-.17l.36.02 1.32 1.41v1.33c2.29-2.35 7-3.83 9.46-.78l.42.03 1.32 1.41v1.5c.01.56-.13 1.04-.45 1.5l4.69-2.25 1.56.28 3.22 3.36c.32.38 1.48.51 2.17.3l8.01-3.81c.24-.09 1.76-.49 1.86-.5 1.79-.18 3.43.72 4.58 2.02l.53 2.5c7.62-.86 11.03-2.36 18.64-5.02l-5.85-.33-2.01-.3c-.17-.04-1.01-.4-1.27-.53-1.66-.86-1.81-2.68-2.19-4.26l6.02-2.56c3.96-1.45 10.58-.48 14.47.82 5.38 1.8 9.25 1.41 13.87-2.25l4.79.4c1.6-1.02 5.32-4.37 6.71-5.79 1.37-1.4 4.7-3.01 6.15-3.45 1.83-.55 3.23.33 4.77 1.32l-.11 4.1.15.07c5.92-6.19 12.34-8.57 20.75-9.43 6.5-.67 9.27.46 14.36 5.19l-1.59 1.8c2.32-.49 3.05-2.35 4.1-4.13l3.02 1.76c1.59 0 2.94-.43 4.24-1.34 2.23-1.68 4.31-2.2 6.97-1.34 1.34-1.39 3.64-2.08 5.46-1.27 1.79-3.16 5.19-4.76 8.77-4.12.05 0 .84.1.86.08l1.71-1.32 2.31.58.31.69 28.94-1.22c1.64 1.59 4.05 2.68 6.38 2.67-.8-2.03-.74-4.09 1-5.53 1.81-1.5 7.98-.97 10.87-.83l1.17.83.59 1.49.19.68c.5 1.53-.18 2.68-1.41 3.52 3.62.31 9.36 1.15 9.41 6.04 0 .17-.11.73-.15.82l13.52-.13c4.52.03 8.53 1.48 12.32 4 4.93 3.51 10.18 5.02 16.22 4.67l5.85-1.62c2.48-.76 5.06.24 6.4 2.46l24.73.82c1.87.38 3.49.49 5.39.35l2.02-.49c5.99-1.95 12.53-2.77 17.33 2.64l.3.25c2.92 1.76 37.25 1.18 41.98-2.73h1.77l1.94 1.62 20.09-1.57 2.15-2.81c6.8-6.76 20.93-7.41 28.68-7.8l-9.61 6.67.91 1.05c3.69 1.27 4.74-2.68 5.45-5.4l4.75 2.29c3.21-2.31 8.64-3.3 12.36-3.51 4.89.08 9.04-.48 13.74-1.84l.34-.1h4.37l-.26-.15-.53-.59-.45-1.05v-.13c-.67.23-.88.31-1.58.28-.27-.03-.49-.08-.74-.19a2.51 2.51 0 0 1-1.34-3.29c.77-1.85 4.73-4.25 6.31-5.34-6.02 2.3-22.31 8.18-27.07 6.8-1.28-.49-2.09-1.62-2.14-2.99-1.45.2-3.34 2.32-4.62 3.34 0 0-1.98 1.2-2.13 1.26-.22.09-1.72.16-2.21.05-1.07-.44-1.85-1.16-2.35-2.21l-1.16-.22-9.23.6c-1.44-.03-2.61-1.17-2.57-2.64.03-1.04.51-1.46 1.08-2.23-5.16 1.79-9.43 3.59-14.32 6.03-1.92.94-8.96 3.58-11.13.61l-9 3.09-.41.07-53.17-.36c.8-2.19 1.6-4 2.68-6.07-12.04 3.02-33.03 6.98-43.42-4.21Zm-337.49 13.5-.89-.33 1.05.12.29-.08.11-.06-.08.05.1-.03c-.22.09-.39.21-.58.33Zm26.39 8.14c.43 1.28.11 2.6-.87 3.53l-.31.3-1.26.55c-1.58.49-7.21-.5-8.04-.83-1.83-4.97 1.71-7.63 6.18-7.69 2.55-.03 3.71 2.12 4.29 4.14Z" class="b"/><path d="m921.71 209.87.36 1.15 1.39.6c-.66-.57-1.18-1.09-1.75-1.75ZM742.43 264.06c-.3.04-.55.06-.85.07.17.04.32.07.49.11l.37-.18ZM1021.4 348.7c-2.17 1.93-6.87 1.08-9.03 1.33l-1.69.39-1.51-.68c-3.55-6.54.9-6.65 5.35-8.18h.01c-1.62-.45-2.71-.43-4.27-.48l-.94-.46-.69-.82c-3.03 3.69-6.59 3.58-10.97 2.71l-1.7-4.8c-3.17.18-9.81-.12-12.45-3.11l-3.9.89c-3.58.03-6.63-.85-9.65-2.76l-3.36-1.49c-.85-.24-2.37-.46-3.21.12-.86.66-1.69 1.07-2.73 1.36-4.31 1.25-6.08-2.68-6.34-6.27l-.07-3.29-23.53 11.07c-2.74-.7-4.92-1.83-7.08-3.65l.75 1.48-.56 2.38-.47.72-5.14 3.87-1.58 2.77-2.16.45-2.28-1.69c-1.88-.59-3.42-1.24-5.15-2.19l-.12-.07c-2.84-1.77-5.87-4.84-3.66-8.4 1.81-2.67 3.99-4.51 6.93-5.84l-.43-.22-.36-1.82-.02-.04c-.55-.39-1.92-.48-2.71-.55-2.2 6.77-8.25 16.96-17.17 16.01-4.1-1.12-7.82-1.17-11.95-.16-1.75.49-3.02 1.57-4.3 2.82l-74.33 4.5c-2.42.31-4.61-.41-6.38-2.08l-.26.06c-2.93 1.65-5.11 3.57-7.13 6.26-2.12 2.74-6.34 6.57-9.41 7.22-1.53.32-3.54-1.1-3.66-2.63l-4 .83c-.5.08-1.43.05-1.95-.19l-4.66 2.77-1.93-.46-2.41-3.77-105.62-5.1c-2.36.02-7.76 2.04-9.99 2.8 1.95 1.29 3.34 4.41 1.15 6.32l-1.15.82c-4.96 2.79-8.78-.72-12.56-3.08l2.62-2.17c.08-.06.14-.12.22-.18-2.14-.18-2.98-1.13-4.48-2.59l-.53 2.99-.11.41-.97 2.04c-1.61 2.32-5.42 1.55-7.37.51l-.4-.27-.92-.92c-.41-.32-4.01-2.11-4.9-2.53-2.5-.76-4.27-2.63-4.88-5.17l-1.31.69-2.43 1.85c-1.05.68-2.28.92-3.48.56-2.47-.72-2.24-3.5-1.83-5.33.23-1.04.88-1.75 1.74-2.32-2.15-1.24-3.84-.91-6.36-.5l-.36-.87c-2.59.55-6.13-.19-7.89-2.34a.994.994 0 0 0-.58-.38l-1.08.35c-5.91 2.24-11.38-.59-15-5.27-4.56.46-9.46.92-11.39-4.14l.45-1.05-11.07-2.13-.16-1.84c-.09-.96-.46-1.75-1.15-2.43-1.32-1.13-7.36 1.62-9.59 2.55l2.84-5.92-.04-.11-.4-.08-3.76-.4c-1.57-.3-2.74-1.63-2.66-3.22-3.07.35-5.68.4-8.76.17-1.85-.25-3.48-.05-5.21.64-1.46.8-.5 2.21-.58 3.37l2.17 1.49c1.54 1.31 2.03 3 2.68 4.79l-1.05 1.94-2.03.47-.33 3.15 2.54 6.24c.13.42.11.43.11.78 1.22-.34 1.97-.73 3.13-1.38l3.18.14c.64.06 1.14.24 1.67.6.6.46.95 1.05 1.09 1.79.04.5 0 1.12-.23 1.59-.52 1.08-2.24 2.07-3.14 2.61l.32.59.15.56.08 3.39c.11.71.36.69.97.83 1.78.27 3.23.93 4.61 2.09 3.7 3.35 6.78 6.23 10.37 9.69.56.42 2.52 1.27 2.9 1.26v-.36l-.04-1.12c.01-.16.34-1.2.53-1.51 1.94-3.12 5.61.34 7.35 1.1.15.06 1.17.35 1.26.35l1.81-1.37 1.91.2 2.67 3.03.19 1.49-.58 1.15c2.09-.09 3 .82 3.54 2.7 4.71.3 8.66 1.27 12.96 3.2l11.81 3.8c2.07.35 3.69 1.46 4.78 3.25.56-.23 2.05-.19 2.83-.09l4.55.81 13.54-.18c1.42-.09 2.44.31 3.45 1.48l.13.18c2.75-1.6 5.6.52 6.47 3.15 3.08-.54 5.74-.71 8.87-.57l4.2.47c2.31.31 3.25.91 5.37 1.87l1.3.36 9.78.57c1.02.11 3.1.67 4.09 1.37.03.02.05.03.09.04l1.94-.37 5.41-1.86c2.37-.51 4.53-.3 6.76.66 9.43 4.18 18.91 4.51 28.61 1.01 12.12-4.61 23.5-5.71 36.28-3.5-1.4-.57-1.6-2.88-1.42-3.84-.28.12-.53.18-.83.2-1.85 1.81-5.58 2.55-7.92 1.31-3.18-1.68-.9-5.1.66-6.56 2.04-1.9 5.99-2.41 7.92-.17l.36.02 1.32 1.41v1.33c2.29-2.35 7-3.83 9.46-.78l.42.03 1.32 1.41v1.5c.01.56-.13 1.04-.45 1.5l4.69-2.25 1.56.28 3.22 3.36c.32.38 1.48.51 2.17.3l8.01-3.81c.24-.09 1.76-.49 1.86-.5 1.79-.18 3.43.72 4.58 2.02l.53 2.5c7.62-.86 11.03-2.36 18.64-5.02l-5.85-.33-2.01-.3c-.17-.04-1.01-.4-1.27-.53-1.66-.86-1.81-2.68-2.19-4.26l6.02-2.56c3.96-1.45 10.58-.48 14.47.82 5.38 1.8 9.25 1.41 13.87-2.25l4.79.4c1.6-1.02 5.32-4.37 6.71-5.79 1.37-1.4 4.7-3.01 6.15-3.45 1.83-.55 3.23.33 4.77 1.32l-.11 4.1.15.07c5.92-6.19 12.34-8.57 20.75-9.43 6.5-.67 9.27.46 14.36 5.19l-1.59 1.8c2.32-.49 3.05-2.35 4.1-4.13l3.02 1.76c1.59 0 2.94-.43 4.24-1.34 2.23-1.68 4.31-2.2 6.97-1.34 1.34-1.39 3.64-2.08 5.46-1.27 1.79-3.16 5.19-4.76 8.77-4.12.05 0 .84.1.86.08l1.71-1.32 2.31.58.31.69 28.94-1.22c1.64 1.59 4.05 2.68 6.38 2.67-.8-2.03-.74-4.09 1-5.53 1.81-1.5 7.98-.97 10.87-.83l1.17.83.59 1.49.19.68c.5 1.53-.18 2.68-1.41 3.52 3.62.31 9.36 1.15 9.41 6.04 0 .17-.11.73-.15.82l13.52-.13c4.52.03 8.53 1.48 12.32 4 4.93 3.51 10.18 5.02 16.22 4.67l5.85-1.62c2.48-.76 5.06.24 6.4 2.46l24.73.82c1.87.38 3.49.49 5.39.35l2.02-.49c5.99-1.95 12.53-2.77 17.33 2.64l.3.25c2.92 1.76 37.25 1.18 41.98-2.73h1.77l1.94 1.62 20.09-1.57 2.15-2.81c6.8-6.76 20.93-7.41 28.68-7.8l-9.61 6.67.91 1.05c3.69 1.27 4.74-2.68 5.45-5.4l4.75 2.29c3.21-2.31 8.64-3.3 12.36-3.51 4.89.08 9.04-.48 13.74-1.84l.34-.1h4.37l-.26-.15-.53-.59-.45-1.05v-.13c-.67.23-.88.31-1.58.28-.27-.03-.49-.08-.74-.19a2.51 2.51 0 0 1-1.34-3.29c.77-1.85 4.73-4.25 6.31-5.34-6.02 2.3-22.31 8.18-27.07 6.8-1.28-.49-2.09-1.62-2.14-2.99-1.45.2-3.34 2.32-4.62 3.34 0 0-1.98 1.2-2.13 1.26-.22.09-1.72.16-2.21.05-1.07-.44-1.85-1.16-2.35-2.21l-1.16-.22-9.23.6c-1.44-.03-2.61-1.17-2.57-2.64.03-1.04.51-1.46 1.08-2.23-5.16 1.79-9.43 3.59-14.32 6.03-1.92.94-8.96 3.58-11.13.61l-9 3.09-.41.07-53.17-.36c.8-2.19 1.6-4 2.68-6.07-12.04 3.02-33.03 6.98-43.42-4.21Zm-337.49 13.5-.89-.33 1.05.12.29-.08.11-.06-.08.05.1-.03c-.22.09-.39.21-.58.33Zm26.39 8.14c.43 1.28.11 2.6-.87 3.53l-.31.3-1.26.55c-1.58.49-7.21-.5-8.04-.83-1.83-4.97 1.71-7.63 6.18-7.69 2.55-.03 3.71 2.12 4.29 4.14Z" class="b"/><path d="m921.71 328.68.36 1.15 1.39.6c-.66-.57-1.18-1.09-1.75-1.75ZM742.43 382.87c-.3.04-.55.06-.85.07.17.04.32.07.49.11l.37-.18ZM1067.95 348.6c.39-.42.72-.76 1.14-1.15l-2 .33c.19.14.66.63.87.83ZM1067.95 229.78c.39-.42.72-.76 1.14-1.15l-2 .33c.19.14.66.63.87.83ZM1067.95 107.84c.39-.42.72-.76 1.14-1.15l-2 .33c.19.14.66.63.87.83ZM1204.11 358.44c9.8 1.02 10.72-1.92 11.49-3.53l4.54-2.15c4.29-2.49 10.6-5.75 15.49-2.27 2.15 1.53 7.46-3.17 9.28-5.07l-.78-.8-.05-2.06-.35-.09-.35-.49-6.63 3.18-.12 3.14c-.45.22-1 .31-1.49.32l-6.52-.23c-1.64.12-2.54-.27-3.44-1.7-.62-.99-.86-2.63-1.08-3.89-1.28-.39-4.81-.95-6.15.74-3.05 5.15-6.35 9.08-10.89 12.98-1.12.91-1.85 1.29-2.97 1.92ZM1204.11 239.63c9.8 1.02 10.72-1.92 11.49-3.53l4.54-2.15c4.29-2.49 10.6-5.75 15.49-2.27 2.15 1.53 7.46-3.17 9.28-5.07l-.78-.8-.05-2.06-.35-.09-.35-.49-6.63 3.18-.12 3.14c-.45.22-1 .31-1.49.32l-6.52-.23c-1.64.12-2.54-.27-3.44-1.7-.62-.99-.86-2.63-1.08-3.89-1.28-.39-4.81-.95-6.15.74-3.05 5.15-6.35 9.08-10.89 12.98-1.12.91-1.85 1.29-2.97 1.92ZM1204.11 117.69c9.8 1.02 10.72-1.92 11.49-3.53l4.54-2.15c4.29-2.49 10.6-5.75 15.49-2.27 2.15 1.53 7.46-3.17 9.28-5.07l-.78-.8-.05-2.06-.35-.09-.35-.49-6.63 3.18-.12 3.14c-.45.22-1 .31-1.49.32l-6.52-.23c-1.64.12-2.54-.27-3.44-1.7-.62-.99-.86-2.63-1.08-3.89-1.28-.39-4.81-.95-6.15.74-3.05 5.15-6.35 9.08-10.89 12.98-1.12.91-1.85 1.29-2.97 1.92Z" class="b"/><path d="M379.08 855.85v-24.03l-49.07-33.39h15.23l39.53 26.91 39.5-26.91h15.34l-49.15 33.39v24.03h-11.38zM409.02 855.85h12.27l11.05-12.66h68.83l11.34 12.66h11.39l-50.35-57.42h-14.3l-50.23 57.42Zm28.56-18.7 28.95-33.02 29.41 33.02h-58.36ZM561.42 856.54c-8.88 0-15.36-.3-19.43-.91s-7.41-1.64-10.01-3.1c-2.87-1.62-4.95-3.76-6.25-6.44-1.3-2.67-1.95-6.21-1.95-10.6v-15.65c0-4.78.65-8.59 1.95-11.42s3.38-5.05 6.25-6.67c2.6-1.47 5.99-2.5 10.18-3.1 4.19-.6 10.57-.91 19.14-.91h27.28c14.1 0 23.63 1.16 28.59 3.49 4.96 2.33 7.44 6.56 7.44 12.71 0 .8 0 1.41-.03 1.85-.02.44-.05.84-.09 1.2h-9.86v-.85c0-4.48-1.48-7.62-4.45-9.41s-8.19-2.68-15.68-2.68h-37.52c-5.12 0-9.1.32-11.95.97-2.85.64-5.07 1.71-6.66 3.2a8.764 8.764 0 0 0-2.38 3.78c-.47 1.47-.7 3.93-.7 7.38v15.23c0 3.44.23 5.9.7 7.36a8.858 8.858 0 0 0 2.38 3.78c1.59 1.49 3.81 2.56 6.66 3.2 2.85.64 6.83.96 11.95.96h37.4c8.18 0 13.76-.87 16.74-2.62 2.98-1.75 4.47-4.92 4.47-9.52v-1.58h9.86c0 .36.02.85.06 1.48.04.63.06 1.09.06 1.37 0 3.6-.54 6.47-1.63 8.62-1.08 2.15-2.85 3.9-5.29 5.26-2.32 1.34-5.58 2.27-9.76 2.81s-10.96.81-20.33.81H561.4ZM651.82 855.85h-10.76v-57.42h10.76v24.68h78.44v-24.68h10.76v57.42h-10.76v-26.48h-78.44v26.48zM804.69 855.85h-10.76v-51.02H751.1v-6.4h96.42v6.4h-42.83v51.02zM916.03 837.15h10.34c-.04.28-.08.66-.12 1.12-.08 1.11-.12 1.86-.12 2.28 0 3.6 1.78 6.1 5.34 7.52 3.56 1.41 10.22 2.12 19.98 2.12h22.6c11.74 0 19.4-.77 22.96-2.31 3.57-1.54 5.35-4.49 5.35-8.83 0-3.62-1.24-6.11-3.72-7.46-2.48-1.35-7.58-2.02-15.29-2.02h-36.54c-11.55 0-19.67-1.19-24.34-3.57-4.67-2.38-7.01-6.46-7.01-12.25s2.67-10.06 8-12.44c5.33-2.38 15.09-3.57 29.28-3.57h19.64c10.73 0 18.24.27 22.54.81 4.3.54 7.67 1.48 10.11 2.82 1.98 1.13 3.44 2.62 4.39 4.46.95 1.84 1.42 4.15 1.42 6.93v1.66h-10.34v-.89c0-3.79-1.37-6.34-4.1-7.67-2.73-1.33-8.51-1.99-17.34-1.99h-29.51c-8.99 0-15.04.68-18.16 2.05-3.12 1.36-4.68 3.87-4.68 7.52s1.52 6.25 4.56 7.64c3.04 1.39 9.36 2.08 18.97 2.08h31.08c6.78 0 11.89.18 15.32.54 3.43.36 6.17.95 8.23 1.77 2.98 1.16 5.11 2.78 6.37 4.86s1.89 5.11 1.89 9.1c0 6.37-2.59 10.82-7.76 13.34-5.17 2.52-14.51 3.78-27.99 3.78h-29.34c-11.63 0-19.91-1.16-24.85-3.49s-7.41-6.19-7.41-11.58c0-.72.06-1.94.19-3.66 0-.28.02-.5.06-.66ZM1020.57 855.85h12.27l11.05-12.66h68.83l11.34 12.66h11.39l-50.35-57.42h-14.3l-50.23 57.42Zm28.56-18.7 28.95-33.02 29.41 33.02h-58.36ZM1145.93 855.85v-57.42h10.76v51.11h67.26v6.31h-78.02zM1237.41 855.85v-57.42h85.24v6.4h-74.68v18h71.55v6.4h-71.55v20.22h74.68v6.4h-85.24zM1336.88 837.15h10.34c-.04.28-.08.66-.12 1.12-.08 1.11-.12 1.86-.12 2.28 0 3.6 1.78 6.1 5.34 7.52 3.56 1.41 10.22 2.12 19.98 2.12h22.6c11.74 0 19.4-.77 22.96-2.31s5.35-4.49 5.35-8.83c0-3.62-1.24-6.11-3.72-7.46-2.48-1.35-7.58-2.02-15.29-2.02h-36.54c-11.55 0-19.67-1.19-24.34-3.57-4.67-2.38-7.01-6.46-7.01-12.25s2.67-10.06 8-12.44c5.33-2.38 15.09-3.57 29.28-3.57h19.64c10.73 0 18.24.27 22.54.81 4.3.54 7.67 1.48 10.11 2.82 1.98 1.13 3.44 2.62 4.39 4.46.95 1.84 1.42 4.15 1.42 6.93v1.66h-10.34v-.89c0-3.79-1.37-6.34-4.1-7.67-2.73-1.33-8.51-1.99-17.34-1.99h-29.52c-8.99 0-15.04.68-18.16 2.05-3.12 1.36-4.68 3.87-4.68 7.52s1.52 6.25 4.56 7.64c3.04 1.39 9.36 2.08 18.97 2.08h31.08c6.78 0 11.89.18 15.32.54s6.17.95 8.23 1.77c2.98 1.16 5.11 2.78 6.37 4.86 1.26 2.08 1.89 5.11 1.89 9.1 0 6.37-2.59 10.82-7.76 13.34-5.17 2.52-14.51 3.78-27.99 3.78h-29.34c-11.63 0-19.91-1.16-24.85-3.49-4.94-2.33-7.41-6.19-7.41-11.58 0-.72.06-1.94.19-3.66 0-.28.02-.5.06-.66Z" class="c"/></svg>